<svg width="85" height="85" viewBox="0 0 85 85" fill="none" xmlns="http://www.w3.org/2000/svg">
<path fill-rule="evenodd" clip-rule="evenodd" d="M26.5293 69.0963C26.5293 69.0963 27.1814 71.1304 27.6574 72.0256C28.1363 72.9208 29.0147 74.0885 29.0147 74.0885C29.0147 74.0885 28.7033 75.6112 28.8413 75.9555C28.9764 76.3001 29.1204 76.8366 28.9882 77.3814C28.8559 77.9261 28.242 84.3423 28.242 84.3423C28.242 84.3423 37.834 84.7236 40.2459 84.6699C42.6579 84.6161 56.1365 84.287 57.2881 84.3076C58.4397 84.3282 60.7342 84.2205 60.7342 84.2205C60.7342 84.2205 60.6226 76.1816 61.2953 73.204C61.968 70.2265 63.4458 60.5671 63.4458 60.5671C63.4458 60.5671 64.4328 58.5978 64.6974 57.01C64.9617 55.422 64.9294 51.189 64.3565 49.7189C63.7807 48.2487 62.3237 46.7073 59.7941 45.8254C57.2646 44.9437 55.9339 44.7149 55.9339 44.7149C55.9339 44.7149 54.9261 43.9831 54.124 44.5245C54.124 44.5245 50.5811 48.1462 49.1357 49.0164C47.6873 49.8863 44.2855 51.2956 44.2855 51.2956L30.2956 49.0249L26.5295 69.096L26.5293 69.0963Z" fill="#988B34"/>
<path fill-rule="evenodd" clip-rule="evenodd" d="M31.5413 19.6046C31.5413 19.6046 31.9936 15.8898 32.9162 13.8979C33.8357 11.906 35.8246 9.32896 35.8246 9.32896C35.8246 9.32896 35.0519 8.43443 35.2457 8.08423C35.4395 7.73437 36.2916 7.64614 36.2916 7.64614C36.2916 7.64614 38.0806 5.55122 38.7946 4.42242C39.5085 3.29396 40.6249 2.85724 40.6249 2.85724C40.6249 2.85724 40.9275 1.8301 41.3212 1.5003C41.7178 1.17033 42.6931 1.59873 42.6931 1.59873C42.6931 1.59873 43.6449 0.579064 44.3676 0.260484C45.0903 -0.058266 50.396 3.56733 51.8209 4.77093C53.2457 5.97453 56.63 12.1831 57.1764 14.3059C57.7228 16.4287 59.2858 24.3952 58.5102 28.3005C57.7316 32.2057 55.7105 34.558 55.0701 35.1059C54.4297 35.6542 53.6657 35.5299 53.6657 35.5299C53.6657 35.5299 52.7814 36.606 51.9853 36.7605C51.1861 36.915 48.0486 37.4126 48.0486 37.4126C48.0486 37.4126 41.7734 38.1268 39.8991 37.6668C38.0278 37.2071 35.9772 36.3245 35.9772 36.3245L32.496 30.775L31.5413 19.6046Z" fill="#988B34"/>
<path fill-rule="evenodd" clip-rule="evenodd" d="M38.0867 13.8786C38.0867 13.8786 39.1736 11.8866 40.0226 11.3689C40.8716 10.8509 43.1221 10.5116 44.2971 10.4897C45.4752 10.4676 46.2479 11.0032 46.2479 11.0032L48.5541 13.5177C48.5541 13.5177 47.1145 13.6428 46.5593 13.4886C46.0041 13.3345 45.0903 12.5756 45.0903 12.5756C45.0903 12.5756 43.5539 12.7794 43.125 12.2169L42.5669 11.4245L40.8806 12.7862L41.2684 11.6598L38.0868 13.8788L38.0867 13.8786Z" fill="black"/>
<path fill-rule="evenodd" clip-rule="evenodd" d="M35.6484 47.2747C35.6484 47.2747 33.7211 46.3358 33.8916 45.932C34.062 45.5284 35.1049 45.4086 36.0098 45.4086C36.9147 45.4086 39.6616 47.1693 40.158 47.5324C40.6574 47.8959 41.5739 47.4381 42.7843 48.3147C43.9918 49.1911 44.0153 50.1897 44.0858 50.6752C44.1564 51.1605 44.0947 51.6935 44.0947 51.6935L50.6342 65.4072C50.6342 65.4072 52.9845 61.1147 54.3858 57.8953C55.7871 54.676 57.4353 53.3848 60.1116 53.468C62.7879 53.5511 64.2951 55.755 62.8673 60.8786C61.4425 66.0024 58.1637 75.0982 55.5579 77.9823C52.9551 80.8667 51.8827 82.2177 49.0918 80.6042C46.3009 78.9904 43.9359 73.6599 42.9224 67.6973L39.5351 53.25C39.5351 53.25 37.981 52.418 36.9146 52.4689C35.8453 52.52 32.4961 52.2247 31.1711 51.2641L30.9889 51.1284C30.9889 51.1284 28.6357 64.5409 27.6251 67.1783C26.6146 69.8155 23.6415 72.2803 21.3618 71.9526C19.0821 71.6246 17.1402 67.1859 18.8118 63.0034C20.4805 58.8209 25.6039 47.7129 25.6039 47.7129C25.6039 47.7129 24.899 47.2188 24.8459 46.7914C24.793 46.364 25.9623 46.4009 25.9623 46.4009L27.7779 38.6134C27.7779 38.6134 26.6233 38.1644 26.7086 36.1521C26.7938 34.1396 25.9742 32.8872 25.7743 32.1596C25.5774 31.4319 26.4383 30.1995 26.4383 30.1995C26.4383 30.1995 26.306 29.7861 25.6305 29.5864C24.9518 29.3869 22.1315 27.861 21.4617 26.9755C20.7919 26.0901 21.256 25.5281 21.5675 25.6917C21.876 25.8554 23.4388 26.9643 24.4201 27.3713C25.3984 27.7781 26.6205 28.0655 26.6205 28.0655C26.6205 28.0655 24.1674 25.2643 23.9883 23.7834C23.8091 22.3025 23.9354 22.3127 24.7138 22.8586C25.4924 23.4045 29.8521 28.5679 29.8521 28.5679C29.8521 28.5679 27.2609 22.6917 27.1169 21.2592C26.9758 19.8268 27.2961 19.6708 27.7104 19.657C28.1276 19.6429 29.1117 22.819 29.5789 23.7086C30.046 24.5984 31.2682 26.286 31.2682 26.286C31.2682 26.286 30.6541 20.5356 31.2564 19.8085C31.8588 19.0817 32.2583 19.46 32.4521 20.3018C32.6489 21.1435 33.263 26.4053 33.263 26.4053C33.263 26.4053 33.5803 26.6454 33.689 26.9956C33.7947 27.3458 33.3804 27.6487 33.3804 27.6487L33.6596 30.0389C33.6596 30.0389 34.0356 27.6351 34.8171 26.8094C35.5986 25.9839 36.0187 26.0432 36.1803 26.3902C36.3389 26.7372 35.484 29.0835 35.484 29.0835L35.1432 32.5313L31.8263 46.5226L35.6484 47.2752V47.2747Z" fill="#FFD7B9"/>
<path fill-rule="evenodd" clip-rule="evenodd" d="M28.668 33.8375L28.198 46.7715C28.198 46.7715 29.7022 47.8406 31.0037 47.708C32.3052 47.5756 35.6661 47.3823 35.6661 47.3823C35.6661 47.3823 34.2294 46.637 33.9622 46.2175C33.6919 45.7979 34.5645 45.3816 34.9903 45.3396C35.4164 45.2976 35.9362 45.3822 35.9362 45.3822L36.0185 33.0317C36.0185 33.0317 34.6378 32.3487 33.7623 32.1901C33.7623 32.1901 33.6594 30.002 33.2365 29.8657C32.8135 29.7293 32.5607 29.62 32.5607 29.62L32.4609 27.7886C32.4609 27.7886 33.6625 27.6858 33.6625 27.1819C33.6596 26.6778 32.9192 26.3846 32.3463 26.4539C31.7734 26.5233 29.2704 26.9486 29.2704 26.9486C29.2704 26.9486 29.1911 27.6519 29.5466 27.7181C29.9051 27.7845 31.7029 27.7648 31.7029 27.7648L31.7146 29.6272C31.7146 29.6272 30.61 29.9689 30.8774 32.33L29.1675 33.2721L28.668 33.8377V33.8375Z" fill="white"/>
<path fill-rule="evenodd" clip-rule="evenodd" d="M35.3545 26.498C35.3545 26.498 35.4191 19.8777 36.3886 17.2486C37.3552 14.6196 38.2071 13.8422 38.2071 13.8422L41.4563 11.5735L40.6954 13.0231L42.461 11.4241C42.461 11.4241 43.4599 12.4861 43.8535 12.6227C44.2443 12.7594 45.1462 12.5099 45.1462 12.5099C45.1462 12.5099 45.9511 13.2895 46.9764 13.4523C48.0045 13.615 48.4688 13.462 48.4688 13.462C48.4688 13.462 51.107 16.2529 52.0383 19.3658C52.9667 22.479 53.5425 25.2816 53.3573 27.0714C53.1722 28.8613 52.2527 31.9014 50.8308 33.5164C49.4118 35.1314 48.6245 35.9711 48.6245 35.9711C48.6245 35.9711 48.316 39.0705 49.0594 40.6721C49.7997 42.274 51.7622 43.4519 52.3409 43.7265C52.9226 44.0012 54.1594 44.3884 54.1594 44.3884C54.1594 44.3884 52.338 46.5296 51.2803 47.3636C50.2227 48.1973 46.9969 50.2633 45.7748 50.7157C44.5498 51.1684 44.0797 51.2042 44.0797 51.2042C44.0797 51.2042 44.2178 48.9823 42.8899 48.3763C41.562 47.7702 40.4074 47.6133 40.4074 47.6133L37.3168 45.8804C37.3168 45.8804 36.4236 44.5605 36.6764 44.1785C36.6764 44.1785 37.5988 43.7943 38.3098 43.3861C39.0207 42.9778 41.23 40.6886 41.23 40.6886L41.0478 36.7809C41.0478 36.7809 38.0366 35.1085 36.8202 32.7732C35.6069 30.4379 35.3545 26.498 35.3545 26.498Z" fill="#FFD7B9"/>
<path fill-rule="evenodd" clip-rule="evenodd" d="M35.4868 26.3314C35.4868 26.3314 35.5837 23.2534 36.0243 20.3292C36.2417 18.8703 36.5443 17.4496 36.9644 16.4789C37.5873 15.0437 38.1542 14.0132 38.7123 13.2365C39.2735 12.4585 39.8199 11.9392 40.3986 11.5225C40.989 11.0977 41.941 10.8269 42.9486 10.739C43.8621 10.6591 44.8199 10.7317 45.6043 10.9919C45.8452 11.1815 47.417 12.4405 48.9769 14.3998C49.8965 15.5576 50.816 16.9601 51.4506 18.5318C52.235 20.4654 52.6962 22.4775 52.8961 24.3295C53.1576 26.739 52.9724 28.8763 52.4555 30.2069C51.9912 31.4016 50.9659 32.9355 49.7438 34.3216C48.5628 35.6598 47.2026 36.8614 45.9746 37.4773C44.9756 37.9805 43.7975 37.8161 42.6371 37.3462C40.9478 36.6619 39.2999 35.3215 38.2629 34.2632C37.5167 33.5044 36.9761 32.6873 36.5884 31.9077C36.0537 30.8343 35.8069 29.8327 35.7071 29.1544C35.6894 29.0349 35.5808 28.9519 35.4602 28.9691C35.3397 28.9863 35.2576 29.0969 35.2751 29.2161C35.3751 29.9279 35.6277 30.9797 36.1829 32.1083C36.5884 32.9286 37.1495 33.7896 37.928 34.5905C38.9973 35.6924 40.7013 37.0873 42.4522 37.803C43.7506 38.3351 45.0756 38.4884 46.2008 37.9261C47.4758 37.2869 48.8948 36.0454 50.1227 34.6554C51.3889 33.2206 52.4465 31.6286 52.9284 30.391C53.469 29.0063 53.6745 26.7827 53.4014 24.2747C53.1987 22.3792 52.7227 20.3202 51.9237 18.3409C51.2685 16.7218 50.3227 15.2761 49.3737 14.0834C47.6346 11.8986 45.8807 10.5639 45.8807 10.5639C45.8573 10.5474 45.8338 10.5345 45.8073 10.5256C44.9552 10.2339 43.9065 10.1472 42.9047 10.2351C41.7972 10.3327 40.7542 10.6458 40.105 11.1135C39.488 11.5586 38.9005 12.1117 38.304 12.9432C37.7311 13.7432 37.1465 14.8044 36.5119 16.2827C36.0801 17.2862 35.7686 18.7524 35.5512 20.259C35.1194 23.2115 35.0371 26.3176 35.0371 26.3176C35.0313 26.4419 35.1311 26.5456 35.2545 26.5492C35.378 26.5529 35.4808 26.4551 35.4866 26.3312L35.4868 26.3314Z" fill="#070000"/>
<path fill-rule="evenodd" clip-rule="evenodd" d="M48.4513 6.73511C48.4513 6.73511 48.9682 7.44673 49.6851 8.49019C50.2109 9.25468 50.8484 10.1948 51.4508 11.1786C51.7622 11.6886 52.0648 12.2103 52.3439 12.721C52.6436 13.2697 52.9168 13.8042 53.1283 14.3091C53.1695 14.4101 53.284 14.4599 53.3869 14.42C53.4868 14.3797 53.5366 14.2649 53.4957 14.1634C53.3017 13.6369 53.0491 13.0727 52.7553 12.5022C52.485 11.9765 52.1795 11.446 51.8652 10.927C51.26 9.93128 50.6225 8.97775 50.0761 8.21632C49.33 7.17745 48.7659 6.49218 48.7659 6.49218C48.6983 6.40548 48.575 6.38933 48.4868 6.45665C48.4016 6.52363 48.3839 6.64875 48.4514 6.73545L48.4513 6.73511Z" fill="#070000"/>
<path fill-rule="evenodd" clip-rule="evenodd" d="M36.1652 9.584C36.1652 9.584 36.9173 9.62191 38.0014 9.71354C38.7946 9.78086 39.767 9.87419 40.7454 10.0189C41.2535 10.0938 41.7618 10.1846 42.2495 10.2839C42.7754 10.3908 43.2748 10.5078 43.7214 10.6511C43.836 10.691 43.9652 10.6285 44.0034 10.5115C44.0446 10.3949 43.9829 10.2677 43.8654 10.2278C43.41 10.0631 42.8959 9.9155 42.3553 9.79412C41.8587 9.68277 41.3389 9.59437 40.8188 9.51736C39.8287 9.36997 38.8446 9.27086 38.0397 9.21391C36.9438 9.13571 36.1771 9.12925 36.1771 9.12925C36.0508 9.12551 35.948 9.22445 35.9422 9.34991C35.9391 9.47571 36.0389 9.5806 36.1652 9.584Z" fill="#070000"/>
<path fill-rule="evenodd" clip-rule="evenodd" d="M44.1855 0.470527C44.1973 0.470187 44.259 0.470012 44.3059 0.477322C44.397 0.492282 44.5085 0.523394 44.6408 0.568444C45.1725 0.750514 45.9775 1.15035 46.9176 1.70252C48.1192 2.40989 49.541 3.36648 50.8895 4.44173C52.6051 5.8087 54.409 8.31637 55.8162 11.5566C56.8827 14.0097 57.717 16.8822 58.1107 20.0013C58.5573 23.5193 58.5368 25.9313 58.2311 27.8167C57.9079 29.8103 57.2704 31.2125 56.536 32.7144C56.0395 33.7368 55.5048 34.3655 55.0171 34.7483C54.2062 35.3867 53.56 35.3185 53.56 35.3185C53.4719 35.3071 53.3837 35.3494 53.3397 35.4261C53.3397 35.4261 53.1282 35.7788 52.761 36.0847C52.5584 36.2537 52.3086 36.4095 52.0149 36.4765C51.7034 36.5474 51.2011 36.6295 50.6782 36.7065C49.694 36.851 48.6394 36.9768 48.6394 36.9768C48.5219 36.9906 48.4396 37.0962 48.4542 37.2125C48.466 37.3287 48.5717 37.4122 48.6892 37.3984C48.6892 37.3984 49.7498 37.2762 50.7397 37.1353C51.2744 37.0589 51.7915 36.977 52.1116 36.9056C52.4759 36.8242 52.7902 36.636 53.0459 36.4271C53.3368 36.1858 53.5454 35.9186 53.6482 35.7707C53.9245 35.7669 54.5589 35.686 55.2993 35.1077C55.8281 34.6958 56.4157 34.0231 56.9563 32.92C57.7112 31.3791 58.3693 29.9402 58.7013 27.8934C59.0156 25.9753 59.0422 23.521 58.5896 19.9413C58.1901 16.7735 57.341 13.8562 56.2571 11.365C54.8115 8.03842 52.949 5.47091 51.1894 4.06807C49.5443 2.75754 47.7933 1.62108 46.4448 0.888377C45.6839 0.474427 45.0493 0.188665 44.6292 0.067285C44.3149 -0.022985 44.0915 -0.0129559 43.98 0.0451841C43.7891 0.142764 43.5394 0.35951 43.2985 0.60448C43.0164 0.89246 42.7432 1.21665 42.5935 1.39617C42.4349 1.33327 42.1792 1.24453 41.9296 1.20084C41.6741 1.15562 41.4215 1.16378 41.2481 1.2532C41.1101 1.32426 40.9632 1.47998 40.8369 1.67769C40.6312 1.99764 40.4579 2.42706 40.3845 2.62426C40.2465 2.67917 39.9967 2.79766 39.6941 3.03141C39.4238 3.24085 39.1066 3.54617 38.7834 3.98732C38.2634 4.70268 37.6965 5.55521 37.2087 6.24031C36.9444 6.61159 36.7033 6.93274 36.5066 7.15289C36.3009 7.38205 36.154 7.49901 36.016 7.56684C35.7986 7.67496 35.6163 7.67581 35.3403 7.79804C35.0965 7.90497 35.0171 8.13583 35.0759 8.42381C35.1611 8.85306 35.5811 9.43208 35.5811 9.43208C35.6517 9.52813 35.7868 9.5487 35.8809 9.47815C35.9778 9.4076 35.9983 9.27245 35.9279 9.1764C35.9279 9.1764 35.7105 8.88077 35.5813 8.57715C35.5373 8.47719 35.5021 8.37672 35.4933 8.28832C35.4904 8.25075 35.4815 8.21284 35.5138 8.19805C35.8018 8.07327 35.9898 8.07089 36.213 7.96005C36.3834 7.87539 36.5773 7.73531 36.8357 7.44835C37.0414 7.21987 37.2941 6.88597 37.5732 6.49973C38.0609 5.81752 38.6308 4.96822 39.1508 4.25592C39.3829 3.9387 39.6151 3.69917 39.8235 3.51948C40.2818 3.12457 40.6225 3.0292 40.6225 3.0292C40.6988 3.00982 40.7576 2.95406 40.784 2.88113C40.784 2.88113 40.9397 2.42757 41.1512 2.05391C41.2481 1.88374 41.3481 1.72496 41.4597 1.66817C41.5597 1.61785 41.7035 1.63519 41.8475 1.66137C42.203 1.72477 42.5702 1.89377 42.5702 1.89377C42.6671 1.93933 42.7846 1.91111 42.8522 1.82628C42.8522 1.82628 43.2342 1.3428 43.6366 0.935817C43.8335 0.736577 44.0303 0.553826 44.186 0.471036L44.1855 0.470527Z" fill="#070000"/>
<path fill-rule="evenodd" clip-rule="evenodd" d="M48.5482 35.7211C48.5482 35.7211 48.3954 36.5784 48.3631 37.6707C48.3513 38.0851 48.3573 38.5336 48.3954 38.9812C48.46 39.7603 48.6216 40.5367 48.936 41.1422C49.3061 41.8488 49.9289 42.4681 50.637 42.982C51.1482 43.3536 51.6974 43.6751 52.2234 43.9285C52.8961 44.2549 53.5219 44.4732 53.9362 44.599C54.0419 44.6345 54.1594 44.5761 54.1947 44.4683C54.2301 44.3609 54.1713 44.2444 54.0655 44.2085C53.6749 44.0686 53.0874 43.816 52.4468 43.4838C51.9533 43.228 51.4244 42.9266 50.9367 42.5702C50.2992 42.1019 49.7234 41.5474 49.3885 40.9063C49.1005 40.3555 48.9625 39.6469 48.895 38.9373C48.8569 38.5079 48.845 38.078 48.851 37.68C48.8569 36.6225 48.9715 35.7886 48.9715 35.7886C48.9921 35.6716 48.9098 35.5615 48.7952 35.543C48.6777 35.5244 48.566 35.6043 48.5484 35.7213L48.5482 35.7211Z" fill="#070000"/>
<path fill-rule="evenodd" clip-rule="evenodd" d="M21.4615 26.0057C21.4587 26.006 21.4587 26.0052 21.4587 26.003C21.4556 25.9917 21.4644 25.99 21.4792 25.9924L21.4615 26.0057C21.4644 26.0052 21.4733 25.9963 21.4792 25.9924C21.5027 25.996 21.535 26.0101 21.5615 26.0162C21.7113 26.0541 21.9052 26.147 22.1227 26.2631C22.7661 26.608 23.5857 27.1579 24.1086 27.3691C24.6521 27.5869 25.3073 27.8776 25.8508 28.07C26.1797 28.1878 26.4735 28.2689 26.6763 28.2827C26.7849 28.2912 26.8789 28.2108 26.8878 28.1031C26.8966 27.9954 26.8143 27.901 26.7086 27.8925C26.5294 27.8764 26.2768 27.7949 25.9917 27.686C25.4571 27.4833 24.8136 27.1812 24.279 26.9536C23.6855 26.7047 22.7073 25.9989 22.0521 25.69C21.8583 25.5992 21.6878 25.5416 21.5556 25.5253C21.4029 25.5062 21.2853 25.5382 21.2001 25.599C21.0561 25.7016 20.9532 25.8149 20.9004 25.9525C20.8533 26.0817 20.8475 26.2365 20.9181 26.4363C21.015 26.7103 21.2941 27.1109 21.8699 27.7298C22.2548 28.1394 22.8394 28.5304 23.4592 28.8617C23.8058 29.046 24.1613 29.2131 24.4962 29.356C25.216 29.6651 25.8389 29.8689 26.0356 29.9315L26.2676 30.3305C26.3145 30.4145 26.4203 30.4454 26.5026 30.3992C26.5877 30.3531 26.6171 30.2475 26.5731 30.1632L26.3234 29.684C26.3028 29.6428 26.2646 29.6114 26.2205 29.5964C26.2205 29.5964 25.5242 29.3394 24.6781 28.9443C24.3607 28.7947 24.02 28.6267 23.688 28.4437C23.1182 28.131 22.5776 27.7776 22.225 27.3987C21.8255 26.9698 21.5816 26.6622 21.4495 26.43C21.3703 26.2916 21.332 26.2008 21.3526 26.125C21.3672 26.0745 21.4114 26.041 21.4614 26.0052L21.4615 26.0057Z" fill="#070000"/>
<path fill-rule="evenodd" clip-rule="evenodd" d="M24.0381 22.6465C24.0469 22.65 24.0615 22.6582 24.0704 22.6623C24.0938 22.6723 24.1204 22.6864 24.1469 22.7029C24.2732 22.7823 24.4143 22.9159 24.5729 23.0825C25.0283 23.5611 25.5893 24.2982 26.174 24.9381C26.879 25.6978 27.7544 26.7343 28.5211 27.5534C28.9354 27.9967 29.3173 28.3765 29.6199 28.6221C29.705 28.6939 29.8344 28.6822 29.9048 28.596C29.9752 28.5099 29.9636 28.3816 29.8783 28.3099C29.5933 28.0669 29.2348 27.6897 28.8442 27.2559C28.0921 26.4242 27.2225 25.3825 26.5293 24.6147C25.8212 23.8433 25.1514 22.9326 24.6579 22.4916C24.461 22.3153 24.279 22.2091 24.1321 22.1788C23.9764 22.1465 23.8441 22.1791 23.7295 22.276C23.6121 22.376 23.5386 22.5202 23.5152 22.7111C23.4917 22.9202 23.5328 23.2008 23.6415 23.5381C23.8324 24.1265 24.2232 24.911 24.7285 25.8008C25.0193 26.3108 25.4248 26.8591 25.8508 27.3691C26.7938 28.4955 27.8221 29.4434 27.8221 29.4434C27.9044 29.5201 28.0307 29.5163 28.107 29.4354C28.1834 29.3543 28.1805 29.2265 28.1012 29.1498C28.1012 29.1498 27.1171 28.1941 26.2064 27.076C25.8069 26.5818 25.4161 26.0572 25.1429 25.5666C24.7434 24.8621 24.4174 24.2266 24.2145 23.7073C24.0736 23.3554 23.9913 23.0625 23.9883 22.8433C23.9883 22.7582 23.9941 22.6883 24.0383 22.6468L24.0381 22.6465ZM24.0381 22.6461C24.0292 22.6432 24.0235 22.6429 24.0263 22.649C24.0263 22.6538 24.0323 22.6499 24.0381 22.6461Z" fill="#070000"/>
<path fill-rule="evenodd" clip-rule="evenodd" d="M30.6394 28.0912C30.6394 28.0912 29.2586 28.4559 28.0365 28.9893C27.3784 29.2758 26.7674 29.6156 26.4206 29.9624C25.9683 30.4143 25.7156 30.9005 25.6186 31.3569C25.4834 31.9924 25.648 32.5746 26.0035 32.9575C26.1826 33.1511 26.2914 33.5647 26.3795 34.0598C26.5498 35.024 26.5998 36.2873 26.6615 37.0492C26.7144 37.6462 26.8672 38.0882 27.111 38.3832C27.4136 38.7487 27.8602 38.9085 28.4654 38.8427C28.5623 38.8334 28.6328 38.7472 28.624 38.6506C28.6123 38.5539 28.5271 38.4832 28.4302 38.4925C27.9719 38.5321 27.6312 38.4238 27.4078 38.143C27.2081 37.8924 27.1023 37.5164 27.067 37.0166C27.0053 36.2444 26.9612 34.9645 26.7909 33.9873C26.6852 33.3925 26.5235 32.906 26.3091 32.6732C26.0359 32.38 25.9242 31.9308 26.0271 31.4431C26.1094 31.053 26.3297 30.6405 26.7146 30.2541C27.032 29.933 27.5958 29.6284 28.1982 29.3569C29.3909 28.819 30.7335 28.4282 30.7335 28.4282C30.8275 28.4023 30.8804 28.3056 30.8539 28.2128C30.8304 28.1196 30.7335 28.065 30.6395 28.0909L30.6394 28.0912Z" fill="#070000"/>
<path fill-rule="evenodd" clip-rule="evenodd" d="M29.5171 27.875C29.7639 27.9126 30.9067 27.9285 31.9085 27.8888C32.4137 27.8687 32.8809 27.8327 33.1835 27.7878C33.3627 27.7611 33.492 27.7252 33.5566 27.6921C33.8592 27.5311 34.0178 27.0501 33.6918 26.6761C33.498 26.4541 33.1072 26.2586 32.4079 26.2819C31.8702 26.3001 31.3621 26.3448 30.9215 26.3994C30.19 26.4898 29.6436 26.6024 29.4613 26.6291C29.103 26.6846 28.9532 26.984 28.9884 27.2887C29.0238 27.5702 29.2204 27.8395 29.5173 27.876V27.8752L29.5171 27.875ZM29.564 27.5275C29.4348 27.5073 29.3702 27.3738 29.3583 27.2502C29.3495 27.1438 29.3906 27.0308 29.514 27.0153C29.7197 26.9883 30.3865 26.8652 31.2591 26.7785C31.6174 26.7426 32.0112 26.7118 32.4195 26.6986C32.825 26.6857 33.0982 26.7498 33.2685 26.8592C33.5005 27.007 33.5005 27.2502 33.3596 27.3249C33.3214 27.3459 33.2362 27.3599 33.1216 27.3772C32.8307 27.4216 32.3784 27.4534 31.8906 27.4797C30.9152 27.5329 29.8047 27.5591 29.5638 27.5285V27.5277L29.564 27.5275Z" fill="#070000"/>
<path fill-rule="evenodd" clip-rule="evenodd" d="M31.5559 27.6693C31.5559 27.6693 31.5294 27.8364 31.5148 28.0756C31.4942 28.3505 31.4883 28.7191 31.4883 29.0269C31.4883 29.1345 31.4913 29.2347 31.4971 29.321C31.5088 29.4926 31.5265 29.6151 31.5411 29.6547C31.5677 29.7484 31.6646 29.8037 31.7586 29.7785C31.8526 29.753 31.9055 29.6563 31.882 29.5626C31.8732 29.5232 31.8937 29.3863 31.8997 29.2034C31.9114 28.9287 31.9143 28.5644 31.9174 28.2612C31.9202 28.1785 31.9202 28.1003 31.9174 28.0297C31.9143 27.8226 31.9056 27.6819 31.9056 27.6819C31.9085 27.5855 31.8322 27.5044 31.7353 27.5008C31.6384 27.4976 31.559 27.5731 31.5561 27.6695L31.5559 27.6693Z" fill="#070000"/>
<path fill-rule="evenodd" clip-rule="evenodd" d="M30.983 32.354C30.983 32.354 30.9801 31.6504 31.0711 31.0141C31.1151 30.6985 31.1768 30.3987 31.2914 30.2314C31.4529 29.9978 31.7115 29.8819 32.0052 29.8538C32.2901 29.8268 32.6045 29.8803 32.9071 29.9981C33.2037 30.1127 33.3537 30.3375 33.4329 30.6741C33.5269 31.0651 33.5357 31.5904 33.518 32.267C33.5121 32.3639 33.5884 32.4461 33.6855 32.4502C33.7824 32.4543 33.8647 32.3788 33.8706 32.2819C33.9146 31.5621 33.9264 31.0013 33.8353 30.5829C33.7295 30.0908 33.4886 29.778 33.0567 29.6093C32.6072 29.4339 32.1342 29.3829 31.7376 29.4759C31.4116 29.5522 31.1353 29.7239 30.9504 29.9976C30.8093 30.2057 30.7154 30.5714 30.6712 30.9624C30.5918 31.6293 30.633 32.3644 30.633 32.3644C30.6359 32.4611 30.7181 32.5367 30.8152 32.5339C30.9121 32.531 30.9856 32.4502 30.9827 32.3538L30.983 32.354Z" fill="#070000"/>
<path fill-rule="evenodd" clip-rule="evenodd" d="M32.2993 27.7173C32.2993 27.7173 32.2846 27.8767 32.2758 28.1059C32.27 28.2754 32.2729 28.4823 32.2758 28.689C32.2787 28.8959 32.2787 29.1026 32.2875 29.2719C32.2964 29.5011 32.3198 29.6604 32.3198 29.6604C32.3198 29.7573 32.399 29.8355 32.4961 29.8343C32.593 29.8334 32.6724 29.7537 32.6695 29.6564L32.696 29.2678C32.6989 29.0983 32.696 28.8914 32.693 28.6847C32.6901 28.4778 32.6901 28.2711 32.6812 28.1018C32.6695 27.8726 32.6489 27.7137 32.6489 27.7137C32.6489 27.617 32.5697 27.5394 32.4727 27.5403C32.3758 27.5415 32.2994 27.6205 32.2994 27.7171L32.2993 27.7173Z" fill="#070000"/>
<path fill-rule="evenodd" clip-rule="evenodd" d="M28.383 46.969C28.383 46.969 28.5094 43.6743 28.6268 40.3792C28.7326 37.3788 28.8295 34.3782 28.8443 33.8654C28.9794 33.7238 29.382 33.3223 29.9695 32.9757C30.3603 32.7448 30.8333 32.5376 31.365 32.4512C32.0848 32.3337 32.9192 32.3524 33.6947 32.4815C34.5173 32.6187 35.2723 32.8772 35.7364 33.2385C35.7305 33.7896 35.701 36.5273 35.6776 39.2651C35.6541 42.3287 35.6422 45.3923 35.6422 45.3923C35.6393 45.4892 35.7185 45.5691 35.8156 45.5701C35.9125 45.571 35.9919 45.4931 35.9919 45.3959C35.9919 45.3959 36.0448 42.333 36.083 39.2697C36.1242 36.2065 36.1536 33.1433 36.1536 33.1433C36.1565 33.0816 36.1301 33.0231 36.083 32.9828C35.5807 32.551 34.714 32.229 33.7622 32.0701C32.9424 31.9334 32.0583 31.9152 31.2974 32.0395C30.7127 32.135 30.1898 32.3621 29.758 32.6171C28.9648 33.0848 28.483 33.646 28.483 33.646C28.4507 33.6822 28.433 33.7276 28.433 33.7752C28.433 33.7752 28.3215 37.0704 28.2216 40.3661C28.1216 43.6617 28.0335 46.9576 28.0335 46.9576C28.0306 47.054 28.1041 47.1351 28.201 47.138C28.2979 47.1412 28.3802 47.0654 28.383 46.969Z" fill="#070000"/>
<path fill-rule="evenodd" clip-rule="evenodd" d="M29.3496 26.8895C29.3496 26.8895 28.7062 25.4794 28.1539 24.0736C27.8778 23.3792 27.6221 22.6864 27.4869 22.1659C27.2607 21.3074 27.0992 20.7195 27.1197 20.3221C27.1344 20.0924 27.2255 19.9476 27.4371 19.8629C27.5223 19.8291 27.5957 19.8561 27.6575 19.9141C27.7163 19.9649 27.7661 20.0343 27.8161 20.115C28.0864 20.5613 28.2803 21.3166 28.5182 21.7995C28.7856 22.3381 29.0645 23.1391 29.3702 23.8161C29.52 24.1437 29.6757 24.4424 29.8374 24.6746C29.9931 24.8949 30.1723 25.1693 30.3457 25.442C30.7246 26.0359 31.0772 26.6206 31.0772 26.6206C31.1272 26.7044 31.2358 26.7323 31.3181 26.6828C31.4032 26.6337 31.4296 26.5255 31.3827 26.4419C31.3827 26.4419 31.0389 25.8455 30.6688 25.24C30.4954 24.9595 30.3163 24.6768 30.1634 24.45C30.0194 24.2333 29.8814 23.9529 29.7462 23.6486C29.4408 22.964 29.1587 22.1579 28.8913 21.6148C28.7327 21.2912 28.5916 20.8453 28.4359 20.4528C28.3036 20.1227 28.1567 19.8289 27.9864 19.6511C27.7867 19.4433 27.5575 19.3667 27.2843 19.4751C26.8994 19.6276 26.7291 19.8843 26.7056 20.299C26.6822 20.7241 26.8437 21.3545 27.0876 22.2716C27.2285 22.8046 27.49 23.5152 27.778 24.2237C28.3538 25.633 29.0324 27.0381 29.0324 27.0381C29.0736 27.1253 29.1793 27.1632 29.2645 27.1221C29.3525 27.0809 29.3908 26.9769 29.3496 26.8895Z" fill="#070000"/>
<path fill-rule="evenodd" clip-rule="evenodd" d="M31.4767 26.4442C31.4767 26.4442 31.3181 24.8131 31.227 23.2858C31.1799 22.47 31.1476 21.684 31.1799 21.1973C31.2181 20.6523 31.2856 20.2839 31.3825 20.0361C31.4913 19.759 31.6294 19.6661 31.7997 19.6427C31.8585 19.6347 31.9083 19.6746 31.9612 19.7364C32.0464 19.8373 32.1227 19.9934 32.1904 20.2032C32.305 20.5462 32.3901 21.0227 32.443 21.6395C32.4901 22.1587 32.5693 22.8798 32.6604 23.6098C32.8456 25.0614 33.0688 26.5476 33.0688 26.5476C33.0805 26.6436 33.1687 26.7113 33.2656 26.698C33.3625 26.6848 33.4302 26.596 33.4156 26.4998C33.4156 26.4998 33.1864 24.6551 33.0101 23.0711C32.9484 22.5211 32.8926 22.0026 32.8603 21.6041C32.7898 20.7803 32.6546 20.1908 32.4903 19.818C32.2846 19.3561 32.0025 19.193 31.7441 19.2289C31.4973 19.2632 31.2741 19.3658 31.0978 19.668C30.9421 19.9351 30.8186 20.3898 30.7658 21.1686C30.7335 21.6684 30.7629 22.4754 30.8215 23.312C30.9302 24.8464 31.1301 26.4821 31.1301 26.4821C31.1389 26.5778 31.227 26.6475 31.3239 26.6367C31.4179 26.6263 31.4884 26.5398 31.4767 26.4439V26.4442Z" fill="#070000"/>
<path fill-rule="evenodd" clip-rule="evenodd" d="M33.1924 27.5567L33.4273 30.315C33.4362 30.4171 33.5214 30.4957 33.6242 30.4974C33.7242 30.4991 33.8122 30.4236 33.8268 30.3219C33.8268 30.3219 33.9503 29.4092 34.2029 28.5346C34.3204 28.1279 34.4672 27.7291 34.6435 27.4411C34.855 27.1009 35.1489 26.7533 35.4396 26.5445C35.5454 26.4682 35.6482 26.4109 35.7511 26.3852C35.8334 26.3643 35.9097 26.3667 35.9743 26.4179C36.0095 26.4446 36.0124 26.4945 36.0183 26.5534C36.0272 26.6662 36.0095 26.8051 35.9743 26.9614C35.9037 27.2818 35.7657 27.6653 35.6071 28.0434C35.4014 28.5276 35.2105 28.9658 35.0901 29.4092C35.0049 29.7336 34.9521 30.0605 34.9579 30.4081C34.9607 30.6575 34.9548 30.9652 34.9432 31.2688C34.9198 31.9269 34.8815 32.5673 34.8815 32.5673C34.8727 32.6642 34.9461 32.7488 35.043 32.7558C35.1399 32.7631 35.2253 32.6905 35.231 32.5936C35.231 32.5936 35.2868 31.9488 35.3251 31.2855C35.3397 30.9752 35.3545 30.6609 35.3545 30.4062C35.3545 30.0967 35.4073 29.8067 35.4867 29.5185C35.6071 29.0925 35.7922 28.6709 35.9891 28.2051C36.1948 27.7162 36.368 27.2177 36.4209 26.8405C36.4678 26.4843 36.3944 26.2191 36.2357 26.0913C36.0037 25.9089 35.7099 25.9154 35.4014 26.0767C35.0077 26.282 34.5788 26.755 34.2909 27.2227C34.0971 27.5382 33.9326 27.9739 33.8063 28.4201C33.7594 28.5779 33.7182 28.7372 33.6829 28.8922L33.5389 27.5237C33.53 27.4277 33.4449 27.3568 33.348 27.366C33.2539 27.3751 33.1836 27.4605 33.1924 27.5567Z" fill="#070000"/>
<path fill-rule="evenodd" clip-rule="evenodd" d="M38.0279 48.6634C38.0279 48.6634 37.5579 48.3875 36.9938 48.0021C36.6766 47.7842 36.3269 47.5309 36.0156 47.2727C35.4016 46.7664 34.723 46.5182 34.3235 46.2727C34.2 46.1972 34.1031 46.1328 34.0768 46.042C34.0708 46.0243 34.0856 46.0082 34.0974 45.9892C34.1239 45.9516 34.162 45.9154 34.2091 45.8795C34.3942 45.742 34.7055 45.6327 35.0963 45.598C35.4958 45.5625 35.9747 45.6077 36.4888 45.7901C36.8677 45.9246 37.2585 46.102 37.6403 46.2945C38.8067 46.8868 39.8789 47.6207 40.2697 47.7687C40.6106 47.8974 41.4301 47.927 42.2057 48.2077C42.5788 48.3437 42.9431 48.5417 43.225 48.8525C43.4776 49.1309 43.6333 49.5005 43.7304 49.8764C43.9596 50.7536 43.8773 51.6702 43.8773 51.6702C43.8744 51.7078 43.8802 51.7454 43.895 51.7795C43.895 51.7795 46.5772 57.456 48.5866 61.6514C49.5444 63.6515 50.3494 65.3149 50.6372 65.8702C50.9603 66.4927 51.5538 67.6599 52.1765 68.8941C53.2752 71.0637 54.4739 73.4409 54.4739 73.4409C54.5179 73.528 54.6237 73.5632 54.7088 73.52C54.7969 73.4765 54.8323 73.3707 54.7882 73.284C54.7882 73.284 53.6101 70.8965 52.526 68.7192C51.9061 67.4792 51.3185 66.3079 50.9984 65.6826C50.7135 65.1286 49.9143 63.4675 48.9625 61.4723C47.0677 57.5056 44.5706 52.2178 44.3003 51.6493C44.3149 51.4229 44.3502 50.5805 44.1388 49.7696C44.0242 49.3281 43.8333 48.8968 43.5364 48.5698C43.2073 48.2063 42.7844 47.9707 42.3466 47.8121C41.574 47.5321 40.7573 47.5039 40.4164 47.3759C40.0316 47.2305 38.9769 46.5043 37.8282 45.923C37.4316 45.7226 37.0232 45.5397 36.6266 45.4001C35.9011 45.1468 35.243 45.1358 34.7406 45.2407C34.2589 45.3415 33.9209 45.5545 33.78 45.7575C33.6889 45.8909 33.6654 46.0274 33.7036 46.1512C33.7536 46.3166 33.8974 46.4647 34.1268 46.5991C34.5205 46.832 35.1903 47.0591 35.7955 47.5428C36.1216 47.8014 36.483 48.054 36.8148 48.2707C37.3966 48.6515 37.8783 48.9223 37.8783 48.9223C37.9518 48.9635 38.0429 48.9388 38.084 48.8674C38.1252 48.7957 38.0987 48.7044 38.0283 48.6633L38.0279 48.6634Z" fill="#070000"/>
<path fill-rule="evenodd" clip-rule="evenodd" d="M25.0368 46.8468C25.0545 46.7904 25.1074 46.7608 25.172 46.7382C25.3071 46.6921 25.4894 46.6848 25.7009 46.6954C26.1269 46.7165 26.6615 46.8179 27.1904 46.9177C27.9513 47.0614 28.8003 47.4563 29.5876 47.6865C29.9871 47.8031 30.372 47.8786 30.7215 47.8701C31.1064 47.8597 31.9259 47.8249 32.8043 47.7723C34.2791 47.6843 35.9126 47.5569 35.9126 47.5569C35.9978 47.5525 36.0595 47.482 36.0535 47.3995C36.0506 47.3172 35.9801 47.2542 35.8978 47.2584L30.7126 47.4526C30.4012 47.4595 30.0603 47.388 29.7049 47.2836C28.9059 47.0486 28.0421 46.6502 27.2666 46.5036C26.5997 46.377 25.9241 46.2522 25.4481 46.2712C24.9809 46.2901 24.6872 46.462 24.6226 46.7709C24.5991 46.8834 24.6314 47.0332 24.7577 47.196C24.9163 47.4073 25.2483 47.6773 25.6597 47.9566C26.5939 48.5929 27.9571 49.2989 28.5535 49.5334C28.8472 49.6476 29.2262 49.7302 29.6316 49.7912C30.5688 49.932 31.6616 49.9582 32.0699 50.0745C32.4165 50.172 33.1452 50.3755 33.8209 50.5263C34.2998 50.6329 34.7552 50.7126 35.043 50.7138C35.1399 50.7147 35.2193 50.6368 35.2193 50.5396C35.2193 50.4423 35.143 50.363 35.0461 50.3618C34.7787 50.357 34.3527 50.2734 33.9034 50.1669C33.2365 50.0088 32.5226 49.7977 32.1789 49.6966C31.7617 49.5747 30.6513 49.5315 29.6935 49.3831C29.3234 49.3253 28.9737 49.252 28.7065 49.1469C28.2041 48.9487 27.1437 48.4042 26.277 47.8595C25.7864 47.5505 25.3575 47.2435 25.14 46.9997C25.0931 46.9463 25.046 46.8642 25.0372 46.8467L25.0368 46.8468Z" fill="#070000"/>
<path fill-rule="evenodd" clip-rule="evenodd" d="M28.2097 49.3621C28.2097 49.3621 28.4711 49.5821 28.8706 49.8503C29.0733 49.9872 29.3172 50.1307 29.5727 50.274C30.0751 50.5572 30.6332 50.8236 31.0946 50.9521C31.5264 51.0711 32.0287 51.151 32.487 51.1937C33.2451 51.2647 33.8855 51.2466 33.8855 51.2466C33.9824 51.2471 34.0618 51.1684 34.0618 51.0715C34.0618 50.9746 33.9824 50.8952 33.8855 50.8947C33.8855 50.8947 33.4683 50.8777 32.91 50.8238C32.7074 50.8044 32.4869 50.7818 32.2608 50.7515C31.9053 50.7036 31.5352 50.6393 31.2061 50.547C30.8564 50.4498 30.4511 50.2633 30.0574 50.0581C29.7608 49.9042 29.4728 49.7356 29.2202 49.5892C29.1321 49.5384 29.0468 49.4911 28.9675 49.4473C28.6178 49.2513 28.38 49.1161 28.38 49.1161C28.3124 49.0692 28.2214 49.0862 28.1743 49.154C28.1272 49.2219 28.1422 49.315 28.2097 49.3621Z" fill="#070000"/>
<path fill-rule="evenodd" clip-rule="evenodd" d="M29.8665 50.4048C29.8665 50.4048 30.2397 50.8467 30.8478 51.3086C30.9918 51.4184 31.1504 51.5285 31.3178 51.6333C31.8378 51.9532 32.4636 52.2235 33.1246 52.3111C33.5741 52.3695 34.1087 52.4261 34.661 52.4785C36.2181 52.6257 37.9102 52.74 38.2188 52.7978C38.3392 52.8195 38.4949 52.9096 38.6888 53.0099C38.9268 53.1337 39.2089 53.2758 39.5173 53.3683C39.8404 53.4643 40.1899 53.509 40.5602 53.4337C40.6542 53.4159 40.7188 53.3236 40.7013 53.228C40.6807 53.1328 40.5896 53.0699 40.4956 53.088C40.1871 53.1413 39.8964 53.0927 39.6318 53.0057C39.291 52.894 38.9914 52.7168 38.7506 52.5859C38.5714 52.4892 38.4157 52.4178 38.2951 52.3938C37.9866 52.3342 36.2738 52.2091 34.7022 52.0583C34.1558 52.0059 33.624 51.951 33.1774 51.8934C32.7016 51.8325 32.2491 51.661 31.8438 51.4543C31.5735 51.3167 31.3267 51.1622 31.1034 51.0121C30.4894 50.5969 30.087 50.2027 30.087 50.2027C30.0313 50.1419 29.9372 50.1378 29.8755 50.1939C29.8167 50.2496 29.8108 50.3443 29.8665 50.4048Z" fill="#070000"/>
<path fill-rule="evenodd" clip-rule="evenodd" d="M39.2999 53.2016C39.2999 53.2016 40.6983 59.4976 42.0291 65.1219C42.8281 68.5089 43.6067 71.6512 44.0121 73.0381C44.6319 75.1536 45.6808 77.471 47.0822 79.1479C48.178 80.4608 49.4941 81.3812 50.9836 81.5381C51.6563 81.6091 52.3498 81.3927 53.0459 80.9378C53.7892 80.4531 54.5412 79.6951 55.2787 78.7433C57.3323 76.0881 59.2888 71.9132 60.7313 68.0841C62.1003 64.4441 63.0492 61.4284 63.4282 59.1258C63.7219 57.3437 63.6662 55.9779 63.2196 55.0655C62.9493 54.51 62.4175 54.0285 61.736 53.695C60.9105 53.2922 59.8646 53.1035 58.8099 53.2492C57.3469 53.4517 55.8693 54.2946 54.9555 56.1023C54.3915 57.222 53.798 58.4696 53.2428 59.671C52.003 62.3432 50.9483 64.7839 50.7897 65.0489C50.7397 65.1321 50.7662 65.2405 50.8485 65.2903C50.9337 65.3403 51.0425 65.3133 51.0923 65.2302C51.2509 64.9639 52.3261 62.5136 53.5806 59.8293C54.1417 58.6342 54.7352 57.3926 55.3051 56.2786C56.1511 54.6126 57.5142 53.8335 58.8626 53.6503C59.835 53.5189 60.7957 53.6931 61.5537 54.0646C62.1472 54.3547 62.6142 54.7643 62.8493 55.2464C63.3693 56.314 63.2871 58.039 62.7612 60.3532C62.2912 62.4326 61.4539 64.9762 60.3376 67.9362C58.9128 71.7252 56.9768 75.8574 54.9438 78.4851C54.2417 79.3942 53.5279 80.1216 52.8168 80.5847C52.2116 80.9798 51.6123 81.1807 51.0277 81.119C49.641 80.973 48.4248 80.1002 47.4053 78.8781C46.0392 77.2432 45.0199 74.9825 44.4147 72.9204C44.0886 71.8134 43.5303 69.5837 42.9017 67.0072C42.5785 65.6778 42.2378 64.2559 41.8999 62.8484C40.7129 57.9047 39.5908 53.1348 39.5908 53.1348C39.5731 53.0542 39.4908 53.0041 39.4116 53.0223C39.3322 53.0408 39.2824 53.1212 39.2999 53.2016Z" fill="#070000"/>
<path fill-rule="evenodd" clip-rule="evenodd" d="M54.274 58.189C54.274 58.189 54.2505 57.9804 54.2123 57.6374C54.2065 57.5643 54.1946 57.4852 54.1829 57.4009C54.1212 56.9188 54.0506 56.2619 54.0683 55.5578C54.0741 55.2722 54.0977 54.9793 54.1329 54.6867C54.1681 54.3991 54.2152 54.1114 54.2886 53.833C54.318 53.7401 54.2651 53.6417 54.174 53.6135C54.08 53.5849 53.9802 53.6376 53.9537 53.7304C53.8537 54.0222 53.7774 54.3239 53.7274 54.6294C53.654 55.0947 53.6363 55.5654 53.6452 56.0052C53.6598 56.6266 53.7157 57.1906 53.7978 57.5961C53.883 58.0127 53.9829 58.2609 53.9829 58.2609C54.0035 58.3412 54.0829 58.39 54.1621 58.3703C54.2444 58.3502 54.2913 58.2693 54.2738 58.1892L54.274 58.189Z" fill="#070000"/>
<path fill-rule="evenodd" clip-rule="evenodd" d="M30.8243 51.0759C30.8243 51.0759 30.2251 54.2392 29.5082 57.7953C29.2085 59.2836 28.8913 60.8415 28.5827 62.2631C28.1332 64.3398 27.7043 66.126 27.3958 66.9777C26.8317 68.5327 25.4656 70.1789 23.9614 71.0733C22.8392 71.7419 21.6377 71.9945 20.6505 71.4109C19.587 70.7799 18.8672 69.6069 18.5558 68.1485C18.1886 66.4208 18.3912 64.2949 19.2844 62.1633C19.9513 60.5666 21.0823 58.122 22.2104 55.6939C23.362 53.2146 24.5138 50.7529 25.1864 49.2331C25.5361 48.4426 25.7534 47.8987 25.7857 47.7277C25.8034 47.6322 25.7388 47.5406 25.6448 47.5229C25.5479 47.5055 25.4567 47.5689 25.4391 47.6645C25.4096 47.8263 25.1922 48.3384 24.8544 49.086C24.1758 50.6006 23.0065 53.0509 21.8461 55.5234C20.7034 57.9527 19.5722 60.4034 18.8995 62.0028C17.9711 64.2216 17.7625 66.4362 18.1445 68.236C18.4823 69.8216 19.2784 71.0871 20.436 71.7737C21.5495 72.4323 22.9096 72.1904 24.1758 71.4359C25.7592 70.4941 27.1958 68.7588 27.7922 67.1215C28.18 66.0474 28.7617 63.5056 29.3258 60.7535C29.5901 59.4756 29.8487 58.1521 30.0807 56.9103C30.6771 53.7547 31.1177 51.1287 31.1177 51.1287C31.1324 51.0477 31.0797 50.9701 30.9974 50.9553C30.9182 50.9409 30.8388 50.995 30.824 51.076L30.8243 51.0759Z" fill="#070000"/>
<path fill-rule="evenodd" clip-rule="evenodd" d="M26.2502 69.2059C26.2502 69.2059 26.5265 69.8854 26.92 70.7488C27.1375 71.2257 27.3931 71.7564 27.6515 72.2642C28.0747 73.1023 28.5094 73.8729 28.812 74.2267C29.0382 74.491 29.2732 74.762 29.4935 75.0111C30.0664 75.6513 30.5451 76.1621 30.5451 76.1621C30.6068 76.2318 30.7154 76.238 30.7831 76.1762C30.8537 76.1142 30.8596 76.0079 30.7977 75.9382L29.129 73.9576C28.8998 73.6897 28.6001 73.1688 28.28 72.5671C27.9217 71.895 27.5514 71.1208 27.243 70.4746C26.8581 69.6734 26.5703 69.0665 26.5703 69.0665C26.5321 68.9786 26.4292 68.9387 26.3412 68.9769C26.2531 69.0153 26.212 69.1182 26.2501 69.2061L26.2502 69.2059Z" fill="#070000"/>
<path fill-rule="evenodd" clip-rule="evenodd" d="M26.1122 46.5341C26.1122 46.5341 26.265 46.0826 26.4588 45.3806C26.6586 44.6556 26.8937 43.663 27.1346 42.6561C27.3315 41.8431 27.5283 41.0191 27.6781 40.3102C27.8221 39.6442 27.9249 39.0796 27.9778 38.7238C27.9924 38.6281 27.9278 38.5373 27.8309 38.5217C27.7369 38.5058 27.6458 38.571 27.6283 38.6668C27.5577 39.0702 27.3933 39.7429 27.2082 40.5324C26.8793 41.9196 26.4532 43.6582 26.1564 44.8924C26.1035 45.1188 26.0536 45.3286 26.0124 45.517C25.889 46.0936 25.8244 46.4607 25.8244 46.4607C25.8038 46.5406 25.8509 46.622 25.9301 46.6422C26.0124 46.6624 26.0916 46.614 26.1122 46.5341Z" fill="#070000"/>
<path fill-rule="evenodd" clip-rule="evenodd" d="M28.8328 74.0211C28.8328 74.0211 28.8533 74.4855 28.8122 74.928C28.7916 75.1343 28.7593 75.3355 28.7007 75.4732C28.6301 75.6495 28.6213 75.782 28.639 75.8953C28.6536 75.9929 28.6918 76.0774 28.7389 76.1665C28.7918 76.2693 28.8593 76.3821 28.8712 76.5776C28.8771 76.6933 28.8624 76.8229 28.836 76.9648C28.7537 77.4398 28.5628 78.0353 28.4952 78.6905C28.4481 79.1544 28.3042 80.8216 28.1983 82.2794C28.1014 83.5564 28.0338 84.6724 28.0338 84.6724C28.028 84.7692 28.0984 84.854 28.1953 84.862C28.2922 84.8696 28.3775 84.7971 28.3862 84.7005C28.3862 84.7005 28.495 83.5882 28.6065 82.313C28.7357 80.86 28.868 79.1957 28.9151 78.7333C28.9797 78.0889 29.1707 77.5035 29.25 77.0362C29.2794 76.8599 29.2969 76.6986 29.2882 76.555C29.2736 76.3229 29.2088 76.1709 29.1413 76.0426C29.1031 75.9674 29.059 75.9059 29.0444 75.8282C29.0356 75.773 29.0444 75.7095 29.0767 75.6232C29.1413 75.4508 29.1736 75.2036 29.1796 74.9501C29.1913 74.4828 29.1327 73.9968 29.1327 73.9968C29.1238 73.9145 29.0534 73.8535 28.9712 73.8601C28.8889 73.8667 28.8272 73.9395 28.8331 74.0214L28.8328 74.0211Z" fill="#070000"/>
<path fill-rule="evenodd" clip-rule="evenodd" d="M31.6294 78.6501C31.6294 78.6501 32.1317 79.2116 32.8574 79.9424C33.2394 80.3269 33.683 80.757 34.1442 81.1795C34.764 81.7463 35.4134 82.2967 35.9892 82.7046C36.6002 83.1341 37.1907 83.5365 37.7079 83.8747C38.736 84.5429 39.4735 84.9746 39.4735 84.9746C39.5527 85.0239 39.6586 84.9989 39.7084 84.9188C39.7583 84.8387 39.7319 84.7335 39.6527 84.684C39.6527 84.684 38.9417 84.2204 37.934 83.537C37.4228 83.1913 36.8353 82.7935 36.2301 82.3629C35.6689 81.9642 35.0345 81.4224 34.4262 80.8716C33.965 80.4556 33.5244 80.0335 33.1366 79.6604C32.4022 78.9503 31.8793 78.4153 31.8793 78.4153C31.8147 78.3459 31.7059 78.3424 31.6355 78.4073C31.568 78.4719 31.5651 78.5809 31.6297 78.6499L31.6294 78.6501Z" fill="#070000"/>
<path fill-rule="evenodd" clip-rule="evenodd" d="M32.9015 78.6465C32.9015 78.6465 33.4949 78.9809 34.3439 79.3768C34.6465 79.5172 34.9814 79.6645 35.334 79.8074C36.1655 80.1464 37.0967 80.4607 37.9222 80.6098C38.9329 80.7893 39.8876 80.8193 40.7102 80.7679C42.3436 80.6659 43.4571 80.2697 43.4571 80.2697C43.5452 80.2403 43.5923 80.1449 43.5629 80.0567C43.5334 79.9683 43.4394 79.9203 43.3514 79.9497C43.3514 79.9497 42.2673 80.2817 40.6868 80.3564C39.8936 80.3939 38.9711 80.3725 37.9987 80.1966C37.3584 80.0825 36.6532 79.8622 35.9805 79.6143C35.5662 79.4615 35.1667 79.2968 34.8024 79.1407C33.8035 78.7153 33.0662 78.3402 33.0662 78.3402C32.9839 78.2949 32.8782 78.3267 32.8313 78.4111C32.7872 78.4957 32.8195 78.6011 32.9018 78.6467L32.9015 78.6465Z" fill="#070000"/>
<path fill-rule="evenodd" clip-rule="evenodd" d="M60.89 84.2436C60.89 84.2436 60.8606 81.1994 60.99 78.1717C61.0546 76.7131 61.1515 75.2582 61.3131 74.1518C61.4512 73.1953 61.698 71.6976 61.977 70.0372C62.6616 65.9939 63.5486 60.9884 63.6398 60.4869C63.7809 60.2645 64.4887 59.0973 64.7621 57.3637C64.9119 56.4015 64.9295 55.2647 64.6416 54.0187C64.621 53.9268 64.53 53.869 64.4389 53.8897C64.3449 53.9103 64.289 54.0019 64.3097 54.0935C64.5712 55.2915 64.5418 56.3817 64.3889 57.3031C64.0804 59.1334 63.2785 60.2945 63.2785 60.2945C63.2608 60.3186 63.2491 60.3456 63.2462 60.3744C63.2462 60.3744 62.4764 64.6431 61.798 68.5956C61.4219 70.784 61.0782 72.8753 60.9019 74.0922C60.7433 75.2109 60.6433 76.6813 60.5905 78.1557C60.4788 81.1943 60.5464 84.2487 60.5464 84.2487C60.5464 84.3432 60.6257 84.419 60.7197 84.4176C60.8137 84.4161 60.89 84.3381 60.89 84.2434V84.2436Z" fill="#070000"/>
<path fill-rule="evenodd" clip-rule="evenodd" d="M64.8618 56.5195C64.8618 56.5195 65.2172 53.5902 64.7354 50.9693C64.4857 49.6117 64.0039 48.3403 63.1607 47.5729C62.4087 46.8893 61.442 46.3338 60.4639 45.8936C58.4514 44.9911 56.3832 44.5738 56.0042 44.5017C55.8427 44.3577 55.3139 43.9558 54.6235 44.0656C54.2446 44.1258 53.8097 44.3383 53.3662 44.8527C52.2675 46.1242 50.8191 47.4692 49.2092 48.6067C47.6462 49.7107 45.9306 50.6205 44.2149 51.0583C44.1209 51.0809 44.0651 51.1737 44.0886 51.2651C44.1121 51.3564 44.2061 51.4124 44.2972 51.3894C46.0599 50.9597 47.8313 50.0542 49.4414 48.9346C51.0865 47.788 52.5583 46.4173 53.6807 45.1266C54.0421 44.7115 54.3828 44.5279 54.6884 44.4794C55.3142 44.3805 55.7577 44.8422 55.7577 44.8422C55.7872 44.8742 55.8281 44.8957 55.8723 44.9032C55.8723 44.9032 58.1168 45.3003 60.2908 46.275C61.2309 46.6962 62.1593 47.2248 62.8848 47.8796C63.6721 48.59 64.1041 49.7807 64.345 51.0424C64.8356 53.6074 64.5184 56.4797 64.5184 56.4797C64.5095 56.5741 64.5772 56.6592 64.671 56.6701C64.765 56.681 64.8502 56.6133 64.8619 56.5193L64.8618 56.5195Z" fill="#070000"/>
<path fill-rule="evenodd" clip-rule="evenodd" d="M36.4151 44.3976C36.4268 44.419 36.4445 44.4512 36.4562 44.4775C36.5502 44.6938 36.6531 45.061 36.7823 45.3639C36.8704 45.5708 36.9732 45.7472 37.0701 45.8521C37.1289 45.9251 37.2376 45.9361 37.311 45.8768C37.3844 45.8171 37.3962 45.7097 37.3345 45.6364C37.2933 45.5783 37.2641 45.4943 37.2258 45.3991C37.1935 45.3139 37.1641 45.2196 37.1289 45.1227C37.0143 44.7915 36.8998 44.4274 36.8029 44.2371C36.7206 44.0809 36.6149 44.0124 36.5443 44.0012C36.4943 43.994 36.4238 43.9862 36.3474 43.9815C36.1477 43.969 35.9068 43.9685 35.9068 43.9685C35.8128 43.9612 35.7276 44.0318 35.7217 44.1263C35.7128 44.2208 35.7863 44.3034 35.8803 44.3107L36.4149 44.3974L36.4151 44.3976Z" fill="#070000"/>
<path fill-rule="evenodd" clip-rule="evenodd" d="M36.5649 44.385C36.5649 44.385 36.991 44.2778 37.5579 44.0376C37.7548 43.9536 37.9691 43.8528 38.1866 43.735C38.6801 43.4698 39.1972 43.1172 39.6084 42.6839C39.9376 42.334 40.2225 42.0266 40.4486 41.7628C40.9803 41.1511 41.2418 40.7912 41.2418 40.7912C41.2976 40.7175 41.2858 40.61 41.2124 40.5515C41.139 40.4927 41.0303 40.5051 40.9715 40.5791C40.9715 40.5791 40.8041 40.7741 40.4809 41.1287C40.3517 41.2727 40.1929 41.4418 40.0137 41.6367C39.808 41.8587 39.5731 42.1147 39.3057 42.3955C39.0031 42.7139 38.6388 42.9817 38.2775 43.2049C38.0366 43.3521 37.7986 43.4789 37.5754 43.5889C36.9585 43.8951 36.4708 44.0551 36.4708 44.0551C36.3796 44.0813 36.3268 44.1765 36.3533 44.2676C36.3796 44.3587 36.4738 44.4112 36.5649 44.385Z" fill="#070000"/>
<path fill-rule="evenodd" clip-rule="evenodd" d="M40.7278 36.5559C40.7278 36.5559 40.7632 37.2068 40.8101 38.1188C40.8453 38.8068 40.8893 39.6436 40.91 40.4623C40.9189 40.9097 40.9218 41.3516 40.9189 41.7608C40.9131 42.2514 40.9012 42.6947 40.8543 43.0434C40.8397 43.1366 40.9043 43.2238 40.9983 43.2382C41.0923 43.2523 41.1774 43.1882 41.1921 43.0954C41.2567 42.7364 41.3007 42.2787 41.3213 41.7708C41.3389 41.3556 41.3359 40.9074 41.3271 40.4535C41.3124 39.6284 41.2713 38.7854 41.2184 38.0932C41.1508 37.1769 41.0715 36.5256 41.0715 36.5256C41.0627 36.4311 40.9775 36.3614 40.8835 36.3695C40.7895 36.378 40.719 36.4615 40.7278 36.5559Z" fill="#070000"/>
<path fill-rule="evenodd" clip-rule="evenodd" d="M41.4709 37.9748C41.4709 37.9748 41.6178 38.2097 41.891 38.5159C42.0232 38.6655 42.1876 38.8287 42.3757 38.9936C42.5372 39.1384 42.7165 39.2865 42.9161 39.4155C43.107 39.5406 43.3158 39.6467 43.5272 39.7354C43.6124 39.7762 43.7153 39.7404 43.7564 39.6552C43.7975 39.5704 43.7622 39.4684 43.677 39.4276C43.489 39.3263 43.3186 39.2013 43.1512 39.077C42.9749 38.9466 42.8046 38.8135 42.6517 38.6792C42.4754 38.5239 42.3228 38.3686 42.1876 38.235C41.9173 37.9632 41.747 37.7702 41.747 37.7702C41.6912 37.6941 41.5824 37.6779 41.5061 37.7344C41.4327 37.7908 41.415 37.8983 41.4709 37.9748Z" fill="#070000"/>
<path fill-rule="evenodd" clip-rule="evenodd" d="M35.898 36.3792C35.898 36.3792 36.28 36.6359 37.0233 36.9606C37.3493 37.1019 37.743 37.2499 38.2014 37.4033C38.6979 37.5663 39.168 37.6858 39.5763 37.7659C39.779 37.8058 39.97 37.8361 40.1375 37.8584C40.6633 37.9286 40.9924 37.9318 40.9924 37.9318C41.0864 37.9367 41.1658 37.8645 41.1716 37.7703C41.1774 37.6763 41.1039 37.596 41.0101 37.5911C41.0101 37.5911 40.4607 37.5377 39.6588 37.3614C39.2679 37.2751 38.8127 37.1653 38.3338 37.0053C37.8872 36.8584 37.5025 36.7088 37.1851 36.5808C36.4624 36.2918 36.0747 36.0853 36.0747 36.0853C35.9924 36.0361 35.8895 36.0626 35.8397 36.1437C35.7897 36.2248 35.8163 36.3306 35.8985 36.3794L35.898 36.3792Z" fill="#070000"/>
<path fill-rule="evenodd" clip-rule="evenodd" d="M31.6531 19.4618C31.6531 19.4618 31.7646 18.7698 31.9968 17.7479C32.076 17.403 32.1671 17.0201 32.273 16.6138C32.4963 15.7512 32.7871 14.7816 33.1574 13.842C33.504 12.95 33.936 12.1666 34.3443 11.5126C35.1641 10.2062 35.919 9.42707 35.919 9.42707C35.9867 9.36128 35.9896 9.25282 35.9219 9.18584C35.8573 9.11852 35.7485 9.11767 35.681 9.1838C35.681 9.1838 34.8613 9.95594 33.9977 11.2915C33.5659 11.9592 33.1281 12.7706 32.7667 13.6886C32.3907 14.6454 32.094 15.6317 31.8737 16.5113C31.768 16.9237 31.6828 17.3127 31.6094 17.6641C31.3948 18.7063 31.3125 19.4144 31.3125 19.4144C31.2979 19.5081 31.3654 19.5951 31.4594 19.608C31.5534 19.6213 31.6386 19.5557 31.6534 19.4617L31.6531 19.4618Z" fill="#070000"/>
<path fill-rule="evenodd" clip-rule="evenodd" d="M37.8487 14.6085C37.8487 14.6085 38.2599 14.2765 38.8387 13.7974C39.0385 13.6303 39.2588 13.4428 39.4909 13.2487C39.7523 13.0244 40.0609 12.7907 40.3604 12.5716C40.431 12.5207 40.4985 12.4706 40.569 12.4218C40.5456 12.4558 40.525 12.4903 40.5013 12.5246C40.2899 12.8595 40.1076 13.2053 40.0225 13.4809C39.9873 13.5841 40.043 13.6963 40.1459 13.7311C40.2487 13.766 40.3603 13.7109 40.3956 13.6074C40.4867 13.3636 40.6748 13.0656 40.8774 12.771C41.2946 12.1622 41.7881 11.5796 41.7881 11.5796C41.8644 11.4885 41.8644 11.3549 41.785 11.2653C41.7058 11.1753 41.5735 11.1566 41.4736 11.2209C41.4736 11.2209 40.7892 11.6551 40.0752 12.18C39.7637 12.4068 39.4494 12.6513 39.1791 12.884C38.9499 13.0833 38.7325 13.2718 38.5356 13.4464C37.9745 13.946 37.5867 14.3083 37.5867 14.3083C37.5044 14.3802 37.4956 14.506 37.569 14.5886C37.6396 14.6714 37.7659 14.6802 37.8482 14.6087L37.8487 14.6085Z" fill="#070000"/>
<path fill-rule="evenodd" clip-rule="evenodd" d="M40.3517 13.6846C40.3517 13.6846 40.7894 13.282 41.2741 12.812C41.6913 12.4077 42.1436 11.9547 42.4051 11.6919C42.5637 11.9348 42.8311 12.2962 43.2071 12.6206C43.5772 12.9385 44.0503 13.2161 44.6027 13.3271C44.7084 13.3512 44.8172 13.2848 44.8407 13.1785C44.8641 13.0724 44.7966 12.9663 44.6909 12.942C44.2209 12.8201 43.836 12.5483 43.5245 12.2646C42.9722 11.7582 42.6696 11.1864 42.6696 11.1864C42.6342 11.1178 42.5668 11.0698 42.4904 11.0578C42.4141 11.046 42.3347 11.0712 42.2818 11.1263C42.2818 11.1263 41.5532 11.8433 40.9393 12.4791C40.4722 12.9648 40.0698 13.4039 40.0698 13.4039C39.9904 13.4814 39.9904 13.6072 40.0698 13.6848C40.1461 13.7623 40.2724 13.7623 40.3518 13.6848L40.3517 13.6846Z" fill="#070000"/>
<path fill-rule="evenodd" clip-rule="evenodd" d="M43.9418 11.6531C43.9418 11.6531 44.1121 12.0142 44.6233 12.4754C44.923 12.7457 45.346 13.0444 45.913 13.3329C46.3947 13.5726 46.8384 13.7069 47.2233 13.7659C48.0754 13.8966 48.6246 13.698 48.6246 13.698C48.7304 13.6662 48.7892 13.5559 48.7569 13.4515C48.7246 13.3473 48.6158 13.2885 48.5101 13.3203C48.5101 13.3203 48.0342 13.4332 47.3025 13.2953C46.9617 13.2307 46.5622 13.1166 46.1304 12.8987C45.7103 12.6898 45.3783 12.4681 45.114 12.2685C44.5205 11.8195 44.2884 11.4619 44.2884 11.4619C44.2356 11.3658 44.115 11.3306 44.021 11.3835C43.9241 11.4364 43.8889 11.5571 43.9418 11.6531Z" fill="#070000"/>
<path fill-rule="evenodd" clip-rule="evenodd" d="M43.2044 12.4487C43.2044 12.4487 43.3748 12.5557 43.6422 12.659C43.839 12.7352 44.0916 12.8022 44.3472 12.8467C44.4587 12.8656 44.5704 12.8822 44.6792 12.885C44.8583 12.8894 45.0346 12.8676 45.1932 12.8241C45.302 12.8047 45.3724 12.7019 45.3547 12.5944C45.3342 12.4872 45.2313 12.4161 45.1227 12.4355C45.0139 12.4447 44.9024 12.4302 44.7849 12.4185C44.6674 12.4067 44.55 12.3914 44.4323 12.37C44.2003 12.3268 43.9769 12.2595 43.7948 12.2073C43.5422 12.1354 43.3688 12.0868 43.3688 12.0868C43.2688 12.0416 43.1485 12.086 43.1045 12.1857C43.0604 12.2855 43.1045 12.4035 43.2044 12.4487Z" fill="#070000"/>
<path fill-rule="evenodd" clip-rule="evenodd" d="M49.641 5.44369C49.641 5.44369 50.3285 6.33823 51.242 7.8463C51.8619 8.87106 52.5876 10.1765 53.2574 11.6878C53.7186 12.7287 54.1506 13.8669 54.5178 15.0727C54.8556 16.1926 55.1406 17.37 55.311 18.5906C55.3256 18.6984 55.4256 18.7751 55.5342 18.761C55.6399 18.7469 55.7164 18.6479 55.7045 18.5398C55.5577 17.2923 55.305 16.0826 54.973 14.9375C54.6176 13.706 54.171 12.549 53.7009 11.4909C53.0223 9.9577 52.2848 8.63102 51.6415 7.60031C50.6897 6.07728 49.9494 5.19447 49.9494 5.19447C49.8819 5.10896 49.7556 5.09553 49.6702 5.16421C49.585 5.23289 49.5703 5.35818 49.6408 5.44352L49.641 5.44369Z" fill="#070000"/>
<path fill-rule="evenodd" clip-rule="evenodd" d="M41.8088 2.82502C41.8088 2.82502 42.2143 3.08801 42.8018 3.46201C43.2336 3.73588 43.7654 4.06517 44.2912 4.41588C44.5644 4.59795 44.8376 4.78631 45.099 4.96753C45.3839 5.16405 45.6571 5.35054 45.8922 5.53431C45.9745 5.60452 46.1008 5.59364 46.1714 5.51017C46.239 5.4267 46.2302 5.30209 46.1449 5.23188C45.9186 5.02533 45.6571 4.8045 45.3751 4.58911C45.1165 4.39225 44.8374 4.20049 44.5613 4.01332C44.0295 3.65547 43.4949 3.31649 43.0514 3.05503C42.4433 2.69871 42.0055 2.47975 42.0055 2.47975C41.9115 2.42535 41.7912 2.45867 41.7352 2.5537C41.6793 2.64873 41.7147 2.77028 41.8087 2.82485L41.8088 2.82502Z" fill="#070000"/>
<path fill-rule="evenodd" clip-rule="evenodd" d="M40.0461 9.68282C40.0461 9.68282 39.6847 9.88852 39.1618 10.2712C38.8063 10.5318 38.3803 10.8788 37.9396 11.2842C37.6253 11.5695 37.305 11.8833 37.0024 12.227C36.7116 12.5594 36.4413 12.9194 36.2004 13.2917C36.1358 13.3813 36.1592 13.5044 36.2473 13.5666C36.3384 13.6292 36.4618 13.6071 36.5235 13.5178C36.7792 13.1761 37.067 12.856 37.355 12.5471C37.6576 12.2252 37.966 11.9188 38.2657 11.6421C38.6975 11.2472 39.1118 10.9117 39.4467 10.6443C39.9373 10.2542 40.2634 10.017 40.2634 10.017C40.3545 9.95771 40.3808 9.83497 40.3222 9.74266C40.2634 9.65018 40.1399 9.62332 40.0459 9.68265L40.0461 9.68282Z" fill="#070000"/>
<path fill-rule="evenodd" clip-rule="evenodd" d="M38.1923 9.88406C38.1923 9.88406 38.0308 9.96549 37.8191 10.1141C37.6634 10.2219 37.4842 10.3691 37.3051 10.5233C37.2139 10.604 37.1199 10.6863 37.0376 10.7735C36.9436 10.8702 36.8673 10.97 36.7968 11.0637C36.7233 11.1441 36.7291 11.2694 36.8085 11.3428C36.8908 11.4166 37.0142 11.411 37.0876 11.3308C37.1816 11.2459 37.2962 11.1648 37.4077 11.0722C37.534 10.9697 37.6604 10.8588 37.7809 10.7572C37.9218 10.6418 38.0571 10.5372 38.1629 10.4454C38.3244 10.3065 38.4243 10.2062 38.4243 10.2062C38.5124 10.1425 38.533 10.0182 38.4684 9.92911C38.4038 9.83986 38.2803 9.81946 38.1921 9.88355L38.1923 9.88406Z" fill="#070000"/>
<path fill-rule="evenodd" clip-rule="evenodd" d="M34.4613 26.4271C34.4613 26.4271 34.3733 25.7896 34.3262 24.7854C34.2939 24.1018 34.2762 23.2486 34.335 22.3083C34.3761 21.6591 34.4554 20.9691 34.5788 20.2631C34.6934 19.6033 34.8402 18.9287 35.0577 18.2642C35.093 18.1614 35.04 18.0488 34.9343 18.013C34.8314 17.9771 34.7197 18.0318 34.6845 18.1345C34.4348 18.8108 34.241 19.4979 34.1087 20.1762C33.9676 20.8989 33.8913 21.6102 33.8502 22.2779C33.7885 23.2403 33.8061 24.1146 33.8561 24.8135C33.9324 25.8459 34.0705 26.4963 34.0705 26.4963C34.0882 26.6041 34.1939 26.6763 34.2996 26.6573C34.4083 26.6382 34.4817 26.5351 34.4611 26.4269L34.4613 26.4271Z" fill="#070000"/>
<path fill-rule="evenodd" clip-rule="evenodd" d="M50.4343 33.9812C50.4343 33.9812 50.8163 33.9489 51.3304 33.7944C51.7093 33.6795 52.159 33.4913 52.5819 33.2286C52.7553 33.1197 52.9286 32.9991 53.0814 32.8585C53.3163 32.6471 53.5134 32.3973 53.666 32.1146C53.7218 32.0213 53.6925 31.8996 53.5985 31.8438C53.5045 31.7881 53.384 31.8185 53.3282 31.912C53.2019 32.1012 53.0433 32.2613 52.8759 32.4099C52.7026 32.5627 52.5175 32.6989 52.3266 32.8171C51.9388 33.0556 51.5245 33.2196 51.1808 33.3415C50.7136 33.5069 50.373 33.5885 50.373 33.5885C50.2643 33.6055 50.1909 33.7075 50.2084 33.816C50.2261 33.9241 50.3259 33.9984 50.4347 33.9814L50.4343 33.9812Z" fill="#070000"/>
<path fill-rule="evenodd" clip-rule="evenodd" d="M48.8213 36.2419C48.8213 36.2419 49.0388 36.3065 49.3854 36.3093C49.6146 36.311 49.8995 36.2778 50.208 36.1947C50.4166 36.1389 50.6398 36.0622 50.8602 35.9426C51.0511 35.8373 51.2391 35.7001 51.4213 35.5346C51.5065 35.4667 51.5213 35.3425 51.4536 35.2573C51.386 35.1718 51.2597 35.1577 51.1745 35.2255C51.0365 35.3219 50.8925 35.3947 50.7544 35.4644C50.5195 35.5817 50.2961 35.6685 50.0817 35.7255C49.8143 35.7981 49.5676 35.8254 49.3679 35.8394C49.0799 35.8605 48.8948 35.8514 48.8948 35.8514C48.7862 35.8312 48.6833 35.9023 48.6627 36.0101C48.6422 36.1178 48.7127 36.2215 48.8213 36.2419Z" fill="#070000"/>
<path fill-rule="evenodd" clip-rule="evenodd" d="M52.3438 34.9885C52.3438 34.9885 53.0224 34.3471 53.5336 32.7637C53.7451 32.117 53.9214 31.31 54.0154 30.3254C54.1271 29.1255 54.124 27.6576 53.8628 25.8911C53.7336 25.0051 53.5336 24.0453 53.2635 23.0043C53.237 22.8986 53.1312 22.8333 53.0255 22.8592C52.9198 22.885 52.8552 22.9919 52.8815 23.0977C53.1165 24.1301 53.2781 25.0819 53.3927 25.9567C53.619 27.6824 53.6424 29.1102 53.5336 30.28C53.4456 31.225 53.2751 31.9992 53.087 32.6229C52.6405 34.0887 52.0618 34.7078 52.0618 34.7078C51.9854 34.7853 51.9854 34.9115 52.0647 34.9887C52.141 35.0662 52.2673 35.0664 52.3438 34.9885Z" fill="#070000"/>
<path fill-rule="evenodd" clip-rule="evenodd" d="M55.1289 33.4687C55.1289 33.4687 55.5138 33.1176 55.9955 32.3673C56.2922 31.9061 56.6213 31.2891 56.9297 30.518C57.1237 30.0344 57.3117 29.49 57.4615 28.8799C57.5907 28.3627 57.6906 27.7985 57.7669 27.1897C57.7816 27.082 57.7081 26.9815 57.5995 26.9653C57.4938 26.9492 57.3909 27.0235 57.3763 27.1313C57.2734 27.7191 57.1413 28.2594 57.0002 28.7588C56.8387 29.3438 56.6653 29.8708 56.4802 30.338C56.1836 31.0783 55.8691 31.6682 55.5959 32.1192C55.1699 32.8314 54.8467 33.1877 54.8467 33.1877C54.7702 33.2652 54.7702 33.3913 54.8467 33.4689C54.9259 33.5464 55.0493 33.5464 55.1287 33.4689L55.1289 33.4687Z" fill="#070000"/>
<path fill-rule="evenodd" clip-rule="evenodd" d="M40.8043 33.5428C40.8043 33.5428 41.3536 33.7496 42.2145 33.8741C42.8108 33.9604 43.56 34.0016 44.3738 33.9234C44.9437 33.869 45.546 33.758 46.1452 33.5482C46.6916 33.3575 47.2351 33.0846 47.758 32.7218C47.8491 32.6618 47.8726 32.5394 47.8138 32.4483C47.7549 32.3572 47.6315 32.332 47.5406 32.3919C47.0324 32.7089 46.5093 32.9304 45.9953 33.0958C45.4253 33.2786 44.8614 33.3881 44.3265 33.4399C43.5539 33.515 42.846 33.4734 42.2731 33.4081C41.4593 33.3146 40.9305 33.1655 40.9305 33.1655C40.8247 33.1312 40.713 33.1876 40.6778 33.2918C40.6455 33.3959 40.7015 33.5084 40.8043 33.5428Z" fill="#070000"/>
<path fill-rule="evenodd" clip-rule="evenodd" d="M41.9527 26.1936C41.9527 26.1936 41.9527 26.6992 41.8647 27.3035C41.8324 27.5359 41.7884 27.7829 41.7207 28.0212C41.615 28.4105 41.4563 28.7793 41.1889 28.9943C41.0949 29.0695 41.0715 29.2009 41.1301 29.3042C41.1301 29.3042 41.6765 30.2535 42.7223 30.1466C43.1484 30.1031 43.6624 29.8792 44.25 29.3126C44.3293 29.2386 44.3351 29.1137 44.2617 29.0334C44.1854 28.9528 44.0619 28.9479 43.9825 29.0217C43.4685 29.4703 43.0367 29.6451 42.681 29.6713C42.1641 29.7095 41.8232 29.4042 41.6617 29.2116C41.9055 28.9369 42.076 28.5552 42.1846 28.1472C42.255 27.8863 42.2992 27.6155 42.3256 27.3608C42.3932 26.7148 42.349 26.1762 42.349 26.1762C42.3431 26.0666 42.2521 25.9818 42.1404 25.9865C42.0316 25.9914 41.9465 26.0843 41.9524 26.1939L41.9527 26.1936Z" fill="#070000"/>
<path fill-rule="evenodd" clip-rule="evenodd" d="M45.6631 21.8393C45.6631 21.8393 46.0098 21.5725 46.5709 21.3677C46.8501 21.2655 47.1821 21.1805 47.5639 21.1588C47.8165 21.1443 48.0868 21.1572 48.3777 21.2048C48.7508 21.2659 49.1592 21.3667 49.5969 21.5809C49.7144 21.6506 49.8672 21.6115 49.9378 21.4937C50.0054 21.3759 49.9672 21.2237 49.8497 21.154C49.3914 20.8303 48.9508 20.6195 48.5307 20.506C48.1752 20.4099 47.8344 20.3873 47.5229 20.4035C47.05 20.4284 46.6328 20.5495 46.2979 20.7064C45.6281 21.0187 45.2726 21.444 45.2726 21.444C45.1638 21.5521 45.1638 21.7288 45.2697 21.8377C45.3784 21.9467 45.5545 21.9474 45.6631 21.8393Z" fill="#070000"/>
<path fill-rule="evenodd" clip-rule="evenodd" d="M37.0439 22.4821C37.0439 22.4821 37.3317 22.1883 37.7606 21.9153C37.9869 21.7732 38.2541 21.638 38.5539 21.5683C38.7565 21.5214 38.9739 21.5031 39.209 21.5333C39.5116 21.5724 39.8465 21.6669 40.1991 21.9032C40.3079 21.9891 40.4635 21.9723 40.5488 21.8657C40.6341 21.7591 40.6165 21.6027 40.5107 21.517C40.117 21.1377 39.7233 20.9254 39.3415 20.8304C39.0066 20.7476 38.6805 20.7642 38.3867 20.8309C37.9844 20.9213 37.6287 21.1121 37.3497 21.33C36.862 21.7117 36.5977 22.1499 36.5977 22.1499C36.5065 22.2733 36.5331 22.4478 36.6565 22.5392C36.7799 22.6308 36.9531 22.6053 37.0443 22.4819L37.0439 22.4821Z" fill="#070000"/>
<path d="M38.7535 25.9662C39.1231 25.9662 39.4228 25.5468 39.4228 25.0295C39.4228 24.5122 39.1231 24.0928 38.7535 24.0928C38.3839 24.0928 38.0842 24.5122 38.0842 25.0295C38.0842 25.5468 38.3839 25.9662 38.7535 25.9662Z" fill="black"/>
<path fill-rule="evenodd" clip-rule="evenodd" d="M38.7536 23.8951C38.5273 23.8863 38.3129 23.9935 38.1484 24.1802C37.9692 24.3818 37.8546 24.687 37.8458 25.0295C37.8429 25.3751 37.9574 25.6842 38.1307 25.8941C38.2952 26.0953 38.5156 26.2086 38.7534 26.209C38.9883 26.2088 39.2088 26.0949 39.3732 25.8941C39.5466 25.6842 39.6612 25.3751 39.6612 25.0295C39.6523 24.6868 39.5349 24.381 39.3557 24.1792C39.1911 23.9924 38.9797 23.8849 38.7534 23.8941L38.7536 23.8951ZM38.7536 24.2916C38.8887 24.2968 38.9944 24.4022 39.0709 24.5391C39.1473 24.6725 39.1884 24.8441 39.1825 25.0295C39.1825 25.213 39.1355 25.3809 39.0562 25.5105C38.9797 25.6332 38.877 25.7235 38.7536 25.7231C38.6272 25.7235 38.5244 25.6332 38.4481 25.5105C38.3688 25.3809 38.3218 25.213 38.3218 25.0295C38.3158 24.8437 38.3569 24.672 38.4333 24.5382C38.5096 24.4009 38.6155 24.2955 38.7536 24.2902V24.2916Z" fill="#070000"/>
<path d="M48.0296 25.6688C48.3992 25.6688 48.6989 25.2494 48.6989 24.7321C48.6989 24.2148 48.3992 23.7954 48.0296 23.7954C47.6601 23.7954 47.3604 24.2148 47.3604 24.7321C47.3604 25.2494 47.6601 25.6688 48.0296 25.6688Z" fill="black"/>
<path fill-rule="evenodd" clip-rule="evenodd" d="M48.0297 23.5978C47.8034 23.5889 47.589 23.6962 47.4245 23.8828C47.2453 24.0845 47.1307 24.3896 47.1219 24.7322C47.119 25.0778 47.2336 25.3868 47.4068 25.5968C47.5714 25.7979 47.7917 25.9113 48.0295 25.9116C48.2644 25.9115 48.4849 25.7976 48.6493 25.5968C48.8227 25.3868 48.9373 25.0778 48.9373 24.7322C48.9285 24.3894 48.811 24.0836 48.6318 23.8818C48.4673 23.695 48.2558 23.5876 48.0295 23.5967L48.0297 23.5978ZM48.0297 23.9942C48.1648 23.9995 48.2706 24.1049 48.3471 24.2417C48.4234 24.3752 48.4645 24.5467 48.4586 24.7322C48.4586 24.9156 48.4117 25.0836 48.3323 25.2131C48.2558 25.3358 48.1531 25.4261 48.0297 25.4258C47.9034 25.4261 47.8005 25.3358 47.7242 25.2131C47.645 25.0836 47.5979 24.9156 47.5979 24.7322C47.5919 24.5464 47.6331 24.3747 47.7094 24.2409C47.7857 24.1035 47.8916 23.9981 48.0297 23.9928V23.9942Z" fill="#070000"/>
<path fill-rule="evenodd" clip-rule="evenodd" d="M28.7328 35.7263C28.7328 35.7263 29.3086 35.1466 30.2398 34.6837C30.7305 34.4393 31.321 34.2242 31.9791 34.1547C32.6635 34.0807 33.3452 34.1919 33.9385 34.3541C35.0049 34.645 35.7893 35.115 35.7893 35.115C35.8833 35.1728 36.0039 35.1446 36.0625 35.0521C36.1183 34.9596 36.0919 34.8376 35.9979 34.7798L34.8609 34.2045C34.6201 34.1064 34.3498 34.0109 34.0589 33.9296C33.4156 33.7497 32.6753 33.6408 31.932 33.7234C31.2182 33.8045 30.5776 34.0357 30.0488 34.3106C29.0617 34.8253 28.4683 35.4774 28.4683 35.4774C28.4006 35.5494 28.4037 35.6639 28.4771 35.7328C28.5477 35.8013 28.6622 35.7986 28.7328 35.7263Z" fill="#070000"/>
<path fill-rule="evenodd" clip-rule="evenodd" d="M28.3008 46.5624C28.3008 46.5624 28.7591 46.4733 29.4758 46.389C29.8196 46.3484 30.2219 46.3055 30.6628 46.2805C31.0682 46.2562 31.5177 46.2692 31.9525 46.2975C32.2228 46.3152 32.4872 46.3411 32.7311 46.3642C33.3981 46.4288 33.8975 46.4973 33.8975 46.4973C34.0033 46.5158 34.1061 46.4432 34.1238 46.3358C34.1415 46.2282 34.0709 46.126 33.9623 46.1078C33.9623 46.1078 33.5539 46.0247 32.9753 45.9506C32.7726 45.9247 32.5464 45.9018 32.3112 45.8821C31.7649 45.8368 31.1626 45.8151 30.6337 45.8501C30.1842 45.8821 29.773 45.9263 29.4204 45.9776C28.686 46.0861 28.2188 46.2103 28.2188 46.2103C28.1219 46.2326 28.0631 46.3298 28.0837 46.4269C28.1071 46.5242 28.204 46.5847 28.3011 46.5624H28.3008Z" fill="#070000"/>
<path fill-rule="evenodd" clip-rule="evenodd" d="M51.1864 49.1936C51.1864 49.1936 51.6301 48.8473 52.2353 48.314C52.6819 47.9212 53.2165 47.4251 53.7335 46.9044C54.0038 46.6303 54.2741 46.3504 54.5179 46.0695C54.7882 45.7584 55.029 45.447 55.2288 45.157C55.2934 45.0682 55.2728 44.9446 55.1817 44.881C55.0936 44.8176 54.9702 44.8382 54.9056 44.9269C54.7059 45.1984 54.4561 45.4834 54.1887 45.7778C53.945 46.0484 53.6864 46.3262 53.419 46.5963C52.9108 47.1135 52.3878 47.6041 51.956 48.0033C51.3713 48.5459 50.9542 48.9163 50.9542 48.9163C50.8777 48.9801 50.869 49.094 50.9307 49.1708C50.9953 49.2472 51.1099 49.2575 51.1862 49.1938L51.1864 49.1936Z" fill="#070000"/>
</svg>
