<svg width="85" height="85" viewBox="0 0 85 85" fill="none" xmlns="http://www.w3.org/2000/svg">
<path d="M78.1202 25.3669H6.87964V72.712H78.1202V25.3669Z" fill="#A7DB71"/>
<mask id="mask0_2862_147" style="mask-type:luminance" maskUnits="userSpaceOnUse" x="6" y="25" width="73" height="48">
<path d="M78.1202 25.3669H6.87964V72.712H78.1202V25.3669Z" fill="white"/>
</mask>
<g mask="url(#mask0_2862_147)">
<path d="M73.7117 80.897L70.7831 81.0763H14.542L10.7419 80.8438C13.8414 65.3463 16.5724 56.5226 16.5724 56.5226C17.3659 51.7612 21.0349 50.2239 21.0349 50.2239L33.6139 46.3093C34.1493 46.1426 34.6492 45.878 35.0881 45.529C35.1246 45.5008 35.1612 45.4709 35.1961 45.441C35.9372 44.8127 36.4584 43.9641 36.6836 43.0188V43.0172C36.6951 42.974 36.7051 42.9309 36.7134 42.886C36.7217 42.8429 36.73 42.8014 36.7367 42.7582C36.7739 42.5492 36.7961 42.3378 36.8031 42.1257C36.8047 42.0742 36.8064 42.0228 36.8064 41.9713V35.8901H48.1735V41.9713C48.1735 42.6088 48.3079 43.2392 48.5679 43.8214C48.8279 44.4035 49.2077 44.9243 49.6825 45.3497L49.6842 45.3514C49.7097 45.3769 49.7369 45.4008 49.7656 45.4228C50.2334 45.8246 50.7787 46.1263 51.3676 46.3093L63.94 50.2223L63.9466 50.2239C64.48 50.4737 64.9779 50.7931 65.4275 51.1735C65.4329 51.1753 65.4376 51.1788 65.4408 51.1835C67.8447 53.2039 68.7411 56.5226 68.7411 56.5226H68.7594C68.7594 56.5226 70.6121 65.3994 73.7117 80.897Z" fill="#ED9A72"/>
<path d="M41.1189 42.3577C45.1729 41.6511 48.1735 36.9542 48.1735 36.9542C48.1735 36.9542 44.1531 36.6232 41.6386 35.8906H36.8067V41.9705C36.8062 42.3214 36.7652 42.6711 36.6842 43.0125L36.6841 43.0189C36.6841 43.0189 37.0649 43.0644 41.1189 42.3577Z" fill="#B86A55"/>
<path d="M52.1342 22.9215C51.884 22.8728 51.6263 22.8787 51.3786 22.939C50.497 16.8521 46.8388 12.2874 42.4579 12.2874C38.0648 12.2874 34.3978 16.8772 33.5292 22.9895C33.2333 22.887 32.9157 22.8636 32.608 22.9215C31.2514 23.1912 30.4764 25.0431 30.877 27.0578C31.2635 29.002 32.6034 30.3825 33.9158 30.2347C35.204 35.006 36.9372 38.6745 40.2594 39.2911C41.1524 39.4568 41.9458 38.931 42.6562 38.931C43.3592 38.931 44.2088 39.5353 44.7973 39.3234C48.3602 38.0407 49.8261 34.9997 51.0396 30.2457C52.281 30.2311 53.4996 28.8966 53.8652 27.0578C54.2658 25.0431 53.4908 23.1912 52.1342 22.9215Z" fill="#E9966E"/>
<path d="M53.1854 26.5804C53.3369 25.3948 53.0739 24.3843 52.5979 24.3235C52.122 24.2626 51.6133 25.1745 51.4618 26.3602C51.3103 27.5459 51.5733 28.5564 52.0493 28.6172C52.5252 28.678 53.0338 27.7661 53.1854 26.5804Z" fill="#B86A55"/>
<path d="M32.8487 28.6172C33.3246 28.5564 33.5876 27.5459 33.4361 26.3602C33.2846 25.1745 32.7759 24.2627 32.3 24.3235C31.8241 24.3843 31.5611 25.3948 31.7126 26.5805C31.8641 27.7661 32.3727 28.678 32.8487 28.6172Z" fill="#B86A55"/>
<path d="M33.5292 22.9895C33.5922 23.5979 33.629 24.2027 33.6586 24.807L33.7363 26.6167C33.7425 26.9182 33.7583 27.2189 33.7697 27.52L33.8066 28.4227C33.8365 29.0247 33.8667 29.625 33.9158 30.2347C33.7094 29.658 33.5652 29.061 33.4856 28.4537C33.3988 27.8499 33.3447 27.2418 33.3236 26.6321C33.3038 26.0234 33.3044 25.4146 33.3373 24.8069C33.3631 24.1977 33.4271 23.5907 33.5292 22.9895Z" fill="#B86A55"/>
<path d="M51.43 22.9895C51.5321 23.5907 51.5962 24.1977 51.6219 24.8069C51.6549 25.4146 51.6554 26.0234 51.6357 26.6321C51.6145 27.2418 51.5604 27.8499 51.4737 28.4537C51.394 29.061 51.2498 29.658 51.0435 30.2347C51.0926 29.625 51.1228 29.0247 51.1526 28.4227L51.1895 27.52C51.2009 27.219 51.2167 26.9182 51.2229 26.6167L51.3006 24.807C51.3302 24.2027 51.367 23.5979 51.43 22.9895Z" fill="#B86A55"/>
<path d="M54.3312 19.4339C54.3315 19.1384 54.2663 18.8464 54.1405 18.579C54.0146 18.3116 53.8312 18.0753 53.6032 17.8872C53.5994 17.8637 53.5945 17.8411 53.5906 17.8177C53.8986 17.5671 54.1255 17.2308 54.2423 16.8513C54.3592 16.4718 54.3608 16.0662 54.2471 15.6858C54.1334 15.3053 53.9093 14.9672 53.6034 14.7141C53.2974 14.461 52.9232 14.3044 52.5282 14.264C52.6523 13.9239 52.6817 13.5565 52.6135 13.2009C52.5452 12.8454 52.3819 12.515 52.1407 12.245C51.8996 11.975 51.5897 11.7754 51.2441 11.6676C50.8985 11.5597 50.5301 11.5477 50.1782 11.6326C50.1787 11.6139 50.1811 11.5956 50.1811 11.5767C50.1813 11.1594 50.0514 10.7524 49.8095 10.4123C49.5675 10.0723 49.2256 9.81619 48.8312 9.67967C48.4368 9.54316 48.0097 9.53303 47.6093 9.65071C47.2089 9.76838 46.8552 10.008 46.5974 10.3362C46.406 10.0922 46.1606 9.89597 45.8805 9.76296C45.6004 9.62994 45.2933 9.56377 44.9833 9.56966C44.6733 9.57555 44.3689 9.65334 44.094 9.7969C43.8192 9.94046 43.5814 10.1459 43.3995 10.3969C43.2733 10.3927 43.1483 10.3904 43.0242 10.3893C42.8703 9.99338 42.5946 9.65654 42.237 9.42738C41.8793 9.19821 41.4581 9.08857 41.034 9.11427C40.61 9.13996 40.2051 9.29967 39.8777 9.57035C39.5503 9.84103 39.3174 10.2087 39.2125 10.6203C38.9103 10.4176 38.5588 10.3008 38.1954 10.2824C37.832 10.264 37.4704 10.3447 37.1494 10.5159C36.8283 10.6871 36.5598 10.9424 36.3726 11.2544C36.1854 11.5664 36.0865 11.9234 36.0865 12.2873C36.0865 12.34 36.0904 12.3919 36.0944 12.4436C35.7374 12.2928 35.3443 12.2488 34.9628 12.3167C34.5813 12.3847 34.2276 12.5617 33.9446 12.8265C33.6616 13.0912 33.4614 13.4323 33.3682 13.8085C33.275 14.1846 33.2929 14.5797 33.4195 14.946C33.1256 14.9875 32.8445 15.094 32.5968 15.2576C32.3491 15.4213 32.1409 15.638 31.9874 15.8921C31.8339 16.1462 31.7388 16.4313 31.7092 16.7267C31.6795 17.0221 31.716 17.3204 31.8159 17.6C31.4798 17.9731 31.2964 18.459 31.3021 18.9612C31.3079 19.4634 31.5024 19.945 31.847 20.3103C31.8506 20.3522 31.8534 20.3954 31.8572 20.4368C31.6351 20.6692 31.4722 20.9516 31.3822 21.2601C31.2922 21.5687 31.2777 21.8944 31.34 22.2097C31.4023 22.5251 31.5395 22.8208 31.7401 23.0719C31.9407 23.3231 32.1988 23.5223 32.4925 23.6528C33.0413 25.3365 33.7066 26.0921 33.7066 26.0921C33.7066 26.0921 33.6776 25.1211 33.7604 23.7749C34.1123 23.6942 34.4358 23.5199 34.6969 23.2706C34.9579 23.0212 35.1468 22.706 35.2435 22.3582C35.3403 22.0104 35.3413 21.6429 35.2465 21.2946C35.1518 20.9462 34.9647 20.63 34.7051 20.3791C34.9822 20.1124 35.1763 19.7714 35.2641 19.3969C35.352 19.0225 35.3297 18.6307 35.2001 18.2686C35.306 18.1515 35.3979 18.0223 35.4736 17.8836C35.6891 18.041 35.934 18.1536 36.1937 18.215C36.4534 18.2763 36.7228 18.2851 36.9859 18.2408C37.2491 18.1965 37.5007 18.1001 37.7261 17.9571C37.9514 17.8142 38.1459 17.6276 38.2981 17.4084C38.6783 17.5876 39.1052 17.6423 39.5183 17.5648C39.9313 17.4872 40.3093 17.2814 40.5986 16.9765C40.7014 17.2474 40.8618 17.4928 41.0687 17.6956C41.2755 17.8985 41.5239 18.0541 41.7968 18.1516C42.0696 18.2492 42.3604 18.2864 42.649 18.2606C42.9376 18.2349 43.2171 18.1468 43.4684 18.0025C43.49 18.4269 43.646 18.8335 43.9137 19.1635C44.1814 19.4934 44.5471 19.7298 44.9579 19.8384C45.3688 19.9471 45.8035 19.9223 46.1993 19.7678C46.5952 19.6132 46.9317 19.3369 47.1602 18.9786C47.3042 19.3598 47.5608 19.688 47.8959 19.9198C48.2309 20.1515 48.6286 20.2758 49.036 20.276C49.0361 20.7012 49.1712 21.1154 49.4218 21.4589C49.6725 21.8024 50.0257 22.0575 50.4306 22.1874C50.3043 22.5446 50.2821 22.9303 50.3667 23.2997C50.4513 23.669 50.6392 24.0067 50.9084 24.2733C51.1143 25.4725 51.2599 26.4294 51.2599 26.4294C51.2599 26.4294 51.6603 25.7754 52.1372 24.8481C52.1987 24.8537 52.2607 24.8575 52.3237 24.8575C52.7412 24.8578 53.1483 24.7278 53.4884 24.4858C53.8285 24.2437 54.0846 23.9016 54.221 23.5071C54.3575 23.1126 54.3674 22.6854 54.2495 22.2849C54.1317 21.8845 53.8918 21.5308 53.5634 21.2731C53.5884 21.1661 53.6103 21.0607 53.6291 20.957C53.8494 20.7691 54.0262 20.5355 54.1474 20.2726C54.2686 20.0096 54.3313 19.7235 54.3312 19.4339Z" fill="#350313"/>
<path d="M38.581 25.7014C39.3787 25.7014 39.38 24.4617 38.581 24.4617C37.7832 24.4617 37.7819 25.7014 38.581 25.7014Z" fill="#38101B"/>
<path d="M47.5417 25.7014C48.3394 25.7014 48.3407 24.4617 47.5417 24.4617C46.7439 24.4617 46.7426 25.7014 47.5417 25.7014Z" fill="#38101B"/>
<path d="M74.4587 81.0762H10.541L10.5792 80.8687C13.6787 65.3711 16.4097 56.5474 16.4097 56.5474C17.2032 51.7861 20.8722 50.2488 20.8722 50.2488L35.0433 45.4011L35.196 45.441L42.2268 47.2987L42.3646 47.3352L42.3729 47.3335L42.4493 47.3136L49.6975 45.4011L49.7655 45.4227L62.0856 49.4303C62.7259 49.6389 63.3465 49.9039 63.94 50.2222C64.4604 50.4991 64.9579 50.8172 65.4275 51.1735C65.4329 51.1752 65.4376 51.1788 65.4408 51.1834C66.9683 52.3344 68.1754 53.8577 68.947 55.6078C69.0765 55.9016 69.1396 56.0776 69.1396 56.0776L69.6343 57.3659C69.6343 57.3659 71.3277 65.3711 74.4272 80.8687L74.4587 81.0762Z" fill="#E8E9EA"/>
<path d="M35.5175 43.7229L35.0432 45.401L37.9983 53.7919L42.3761 47.3346L35.5175 43.7229Z" fill="#D2D3D5"/>
<path d="M49.2231 43.7229L49.6974 45.401L46.7423 53.7919L42.3645 47.3346L49.2231 43.7229Z" fill="#D2D3D5"/>
<path d="M44.7182 81.0764H38.7134L40.9031 52.2096H40.9064L43.6606 51.7563L43.6789 52.2411L44.7182 81.0764Z" fill="#577FFF"/>
<path d="M39.45 51.4101C39.45 51.4101 42.619 53.9871 45.0824 51.1976L42.3324 47.1414L39.45 51.4101Z" fill="#577FFF"/>
<path d="M20.9171 72.0864L20.6183 81.0762H20.3311L20.9171 72.0864Z" fill="#D2D3D5"/>
<path d="M65.0008 81.0762H64.7136L64.4148 72.0864L65.0008 81.0762Z" fill="#D2D3D5"/>
<path d="M51.0459 65.4082H58.9146C58.9146 65.4082 56.5667 68.6812 51.0459 65.4082Z" fill="#D2D3D5"/>
<path d="M42.5266 35.3692L42.4935 35.3652C42.327 35.3444 42.1586 35.3855 42.0203 35.4806C36.4256 39.3851 33.6141 26.2314 33.6141 26.2314C33.4049 33.7373 36.8447 38.8138 40.1669 39.4303C41.0599 39.596 41.8533 39.0703 42.5637 39.0703C43.2666 39.0703 44.0914 39.5852 44.7048 39.4626C48.4108 38.7212 51.8064 32.0662 51.1771 25.2209C51.8326 32.3512 44.1879 36.9359 43.3627 35.7148C43.218 35.5007 42.7831 35.3999 42.5266 35.3692Z" fill="#38101B"/>
<path d="M41.58 32.29C41.58 32.29 41.1336 33.7866 41.58 34.6004C42.0263 35.4142 43.1367 35.3098 43.3776 34.6003C43.6566 33.7789 43.2536 32.104 43.2536 32.104L41.58 32.29Z" fill="#38101B"/>
<path d="M46.2517 32.6502C46.2517 32.6502 44.2607 30.3378 42.1435 30.8086C40.0262 31.2794 39.134 33.4441 39.134 33.4441L46.2517 32.6502Z" fill="#D7645D"/>
<path d="M42.4725 29.5276C42.4982 29.7047 42.488 29.8853 42.4425 30.0584C42.4003 30.2331 42.3342 30.4012 42.2461 30.5579C42.0621 30.8779 41.8096 31.1532 41.5066 31.364C41.2033 31.5751 40.8631 31.7276 40.5037 31.8137C40.4158 31.8355 40.3269 31.8536 40.2378 31.8719C40.1791 31.8882 40.1269 31.8986 40.0715 31.9115C39.9628 31.9288 39.8505 31.9685 39.7389 31.99C39.2903 32.111 38.8139 32.2498 38.3036 32.4043C38.0447 32.4759 37.7827 32.5582 37.5063 32.638C37.4339 32.6559 37.3674 32.6787 37.2968 32.6995C37.2227 32.7187 37.1565 32.7428 37.083 32.7644C37.0076 32.7872 36.943 32.8108 36.865 32.8383C36.8303 32.8508 36.7947 32.8656 36.7567 32.8832C36.7195 32.902 36.6844 32.9248 36.6522 32.9513C36.6348 32.9081 36.6254 32.862 36.6245 32.8154C36.6243 32.7707 36.6256 32.7224 36.6294 32.6732C36.642 32.5838 36.662 32.4956 36.6891 32.4095C36.741 32.2429 36.8103 32.0822 36.8959 31.9301C37.0612 31.6363 37.2682 31.3682 37.5106 31.134C38.0008 30.6585 38.6061 30.3186 39.2672 30.1477C39.4399 30.1051 39.6153 30.0744 39.7922 30.056C39.8812 30.0487 39.9734 30.0391 40.0592 30.0352C40.1144 30.0335 40.17 30.0316 40.2265 30.0334C40.4512 30.0346 40.6758 30.0238 40.8994 30.001C41.4497 29.9479 41.9842 29.787 42.4725 29.5276Z" fill="#350313"/>
<path d="M42.2871 29.5276C42.7753 29.787 43.3098 29.9479 43.8601 30.001C44.0837 30.0238 44.3083 30.0346 44.533 30.0334C44.5895 30.0316 44.6451 30.0335 44.7004 30.0352C44.7861 30.039 44.8783 30.0487 44.9673 30.056C45.1442 30.0744 45.3196 30.105 45.4923 30.1477C46.1534 30.3186 46.7588 30.6585 47.2489 31.134C47.4913 31.3681 47.6983 31.6363 47.8636 31.93C47.9492 32.0822 48.0185 32.2429 48.0704 32.4095C48.0975 32.4956 48.1175 32.5838 48.1301 32.6732C48.134 32.7224 48.1352 32.7707 48.135 32.8154C48.1341 32.862 48.1248 32.908 48.1073 32.9513C48.0751 32.9248 48.0401 32.902 48.0028 32.8832C47.9648 32.8655 47.9292 32.8508 47.8945 32.8383C47.8165 32.8108 47.7519 32.7872 47.6765 32.7644C47.603 32.7428 47.5368 32.7187 47.4627 32.6995C47.3921 32.6787 47.3256 32.6559 47.2533 32.638C46.9768 32.5582 46.7148 32.4759 46.4559 32.4043C45.9456 32.2498 45.4692 32.111 45.0206 31.99C44.909 31.9685 44.7968 31.9288 44.688 31.9115C44.6326 31.8986 44.5804 31.8882 44.5217 31.8719C44.4326 31.8536 44.3437 31.8355 44.2558 31.8137C43.8964 31.7276 43.5563 31.5751 43.2529 31.364C42.95 31.1531 42.6974 30.8779 42.5135 30.5579C42.4254 30.4012 42.3593 30.2331 42.317 30.0584C42.2715 29.8853 42.2613 29.7047 42.2871 29.5276Z" fill="#350313"/>
<path d="M44.4435 29.272C43.8803 29.8427 43.1357 30.1993 42.3379 30.2803C42.3627 30.2844 42.3875 30.2865 42.4123 30.2886H42.2636C42.2884 30.2865 42.3132 30.2844 42.3379 30.2803C41.5532 30.202 40.8193 29.8562 40.2593 29.3009L44.4435 29.272Z" fill="#B86A55"/>
</g>
<path d="M52.0829 22.9994C51.8328 22.9506 51.575 22.9566 51.3274 23.0169C50.4457 16.93 46.7875 12.3652 42.4066 12.3652C38.0135 12.3652 34.3466 16.9551 33.4779 23.0674C33.182 22.9649 32.8645 22.9415 32.5567 22.9994C31.2002 23.2691 30.4252 25.121 30.8257 27.1357C31.2122 29.0798 32.5521 30.4604 33.8645 30.3126C35.1527 35.0838 36.8859 38.7524 40.2081 39.369C41.1011 39.5347 41.8946 39.0089 42.605 39.0089C43.3079 39.0089 44.1575 39.6131 44.746 39.4013C48.309 38.1186 49.7748 35.0776 50.9883 30.3236C52.2297 30.309 53.4484 28.9745 53.814 27.1357C54.2145 25.121 53.4395 23.2691 52.0829 22.9994Z" fill="#E9966E"/>
<path d="M44.2378 22.4216C44.6993 22.366 45.1656 22.3626 45.6279 22.4114C45.8545 22.4319 46.0788 22.4622 46.3016 22.4986L46.627 22.5558C46.7256 22.5743 46.8248 22.5888 46.9245 22.5993C47.3278 22.6456 47.7349 22.6484 48.1388 22.6078C48.2426 22.5984 48.3464 22.5843 48.4519 22.5699C48.5626 22.5523 48.6782 22.5357 48.7923 22.5221C49.0261 22.4932 49.2617 22.4815 49.4972 22.4873C49.3181 22.6403 49.1279 22.7798 48.9282 22.9048C48.8299 22.9663 48.7334 23.0259 48.6313 23.0826C48.5234 23.1419 48.4117 23.1938 48.297 23.2382C47.8294 23.4174 47.3251 23.4798 46.8279 23.4199C46.704 23.4025 46.5803 23.383 46.4587 23.3533C46.3339 23.3214 46.2365 23.2943 46.1251 23.2605C45.9089 23.1951 45.6942 23.1236 45.4817 23.0424C45.0451 22.8828 44.6278 22.6746 44.2378 22.4216Z" fill="#38101B"/>
<path d="M40.5029 22.3968C40.1188 22.6586 39.7064 22.8762 39.2735 23.0457C39.0629 23.1318 38.8498 23.2081 38.6353 23.2784C38.5246 23.3148 38.4278 23.3441 38.3037 23.3788C38.1829 23.4112 38.0597 23.4335 37.9362 23.4538C37.4405 23.5249 36.9349 23.474 36.4634 23.3055C36.3476 23.2637 36.2348 23.2143 36.1256 23.1576C36.0222 23.1032 35.9244 23.0459 35.8248 22.9866C35.6223 22.8661 35.4289 22.7309 35.2463 22.5821C35.4817 22.571 35.7175 22.5773 35.9519 22.6008C36.0663 22.6118 36.1822 22.6259 36.2933 22.6409C36.3991 22.6529 36.5032 22.6647 36.6071 22.6717C37.0119 22.7031 37.4188 22.691 37.8209 22.6356C37.9203 22.6227 38.0191 22.606 38.1174 22.5854L38.4414 22.5207C38.6634 22.4793 38.8869 22.4439 39.1129 22.4183C39.574 22.359 40.0403 22.3518 40.5029 22.3968Z" fill="#38101B"/>
<path d="M53.1341 26.6583C53.2856 25.4726 53.0226 24.4622 52.5467 24.4013C52.0707 24.3405 51.5621 25.2524 51.4106 26.4381C51.2591 27.6238 51.5221 28.6343 51.998 28.6951C52.4739 28.7559 52.9826 27.844 53.1341 26.6583Z" fill="#B86A55"/>
<path d="M32.7974 28.6951C33.2733 28.6343 33.5363 27.6238 33.3848 26.4381C33.2333 25.2524 32.7247 24.3405 32.2487 24.4014C31.7728 24.4622 31.5098 25.4727 31.6613 26.6583C31.8128 27.844 32.3215 28.7559 32.7974 28.6951Z" fill="#B86A55"/>
<path d="M33.478 23.0674C33.541 23.6758 33.5777 24.2806 33.6073 24.8849L33.685 26.6946C33.6912 26.9961 33.7071 27.2968 33.7184 27.5978L33.7553 28.5006C33.7852 29.1025 33.8154 29.7029 33.8645 30.3126C33.6582 29.7359 33.514 29.1388 33.4343 28.5316C33.3475 27.9277 33.2934 27.3196 33.2723 26.71C33.2525 26.1012 33.2531 25.4925 33.2861 24.8848C33.3118 24.2755 33.3759 23.6685 33.478 23.0674Z" fill="#B86A55"/>
<path d="M51.3787 23.0674C51.4808 23.6685 51.5449 24.2755 51.5706 24.8848C51.6036 25.4925 51.6042 26.1012 51.5843 26.71C51.5632 27.3196 51.5092 27.9277 51.4224 28.5316C51.3427 29.1388 51.1985 29.7359 50.9922 30.3125C51.0413 29.7028 51.0715 29.1025 51.1014 28.5006L51.1383 27.5978C51.1496 27.2968 51.1655 26.996 51.1717 26.6945L51.2494 24.8849C51.2789 24.2806 51.3157 23.6758 51.3787 23.0674Z" fill="#B86A55"/>
<path d="M36.6113 24.7049C36.7911 24.566 36.9934 24.459 37.2094 24.3884C37.4226 24.3149 37.6447 24.2701 37.8697 24.2554C38.1004 24.2362 38.3326 24.2587 38.5553 24.3219C38.7864 24.3792 38.9907 24.5144 39.1335 24.7049C38.9271 24.6604 38.7163 24.6396 38.5051 24.643C38.3041 24.6403 38.1016 24.6544 37.8967 24.6677C37.4694 24.7076 37.0401 24.72 36.6113 24.7049Z" fill="#38101B"/>
<path d="M54.2799 19.5118C54.2802 19.2162 54.2151 18.9243 54.0892 18.6569C53.9634 18.3895 53.7799 18.1532 53.552 17.9651C53.5482 17.9415 53.5432 17.919 53.5393 17.8956C53.8474 17.645 54.0742 17.3087 54.191 16.9292C54.3079 16.5497 54.3096 16.1441 54.1958 15.7636C54.0821 15.3832 53.8581 15.045 53.5521 14.792C53.2461 14.5389 52.872 14.3822 52.4769 14.3419C52.601 14.0017 52.6305 13.6344 52.5622 13.2788C52.494 12.9233 52.3306 12.5929 52.0894 12.3229C51.8483 12.0529 51.5384 11.8533 51.1928 11.7455C50.8472 11.6376 50.4789 11.6255 50.127 11.7105C50.1275 11.6917 50.1298 11.6735 50.1298 11.6546C50.1301 11.2373 50.0002 10.8303 49.7582 10.4902C49.5163 10.1502 49.1743 9.89407 48.7799 9.75755C48.3855 9.62104 47.9584 9.61091 47.558 9.72858C47.1576 9.84626 46.8039 10.0859 46.5461 10.4141C46.3547 10.1701 46.1094 9.97385 45.8293 9.84084C45.5492 9.70782 45.242 9.64165 44.932 9.64754C44.622 9.65344 44.3176 9.73122 44.0427 9.87478C43.7679 10.0183 43.5302 10.2237 43.3482 10.4748C43.222 10.4706 43.097 10.4683 42.9729 10.4672C42.819 10.0713 42.5434 9.73442 42.1857 9.50526C41.828 9.27609 41.4068 9.16645 40.9828 9.19215C40.5588 9.21785 40.1539 9.37755 39.8265 9.64823C39.4991 9.91891 39.2661 10.2866 39.1612 10.6982C38.859 10.4955 38.5075 10.3786 38.1441 10.3603C37.7807 10.3419 37.4191 10.4226 37.0981 10.5938C36.777 10.765 36.5085 11.0203 36.3213 11.3323C36.1341 11.6443 36.0352 12.0013 36.0352 12.3651C36.0352 12.4179 36.0391 12.4697 36.0431 12.5215C35.6861 12.3707 35.2931 12.3266 34.9115 12.3946C34.53 12.4625 34.1764 12.6396 33.8934 12.9044C33.6104 13.1691 33.4102 13.5102 33.317 13.8864C33.2238 14.2625 33.2416 14.6576 33.3683 15.0239C33.0743 15.0654 32.7933 15.1719 32.5455 15.3355C32.2978 15.4992 32.0897 15.7159 31.9361 15.97C31.7826 16.2241 31.6876 16.5092 31.6579 16.8046C31.6282 17.1 31.6647 17.3983 31.7647 17.6778C31.4285 18.051 31.2451 18.5369 31.2509 19.0391C31.2566 19.5412 31.4511 20.0229 31.7958 20.3882C31.7993 20.4301 31.8022 20.4732 31.8059 20.5147C31.5838 20.7471 31.4209 21.0294 31.3309 21.338C31.2409 21.6466 31.2264 21.9723 31.2887 22.2876C31.351 22.6029 31.4883 22.8987 31.6889 23.1498C31.8894 23.401 32.1475 23.6002 32.4413 23.7307C32.99 25.4143 33.6553 26.1699 33.6553 26.1699C33.6553 26.1699 33.6263 25.199 33.7092 23.8528C34.061 23.7721 34.3846 23.5978 34.6456 23.3484C34.9066 23.0991 35.0955 22.7839 35.1922 22.4361C35.289 22.0883 35.29 21.7208 35.1953 21.3725C35.1005 21.0241 34.9134 20.7078 34.6538 20.457C34.9309 20.1903 35.1251 19.8492 35.2129 19.4748C35.3007 19.1004 35.2784 18.7086 35.1488 18.3465C35.2548 18.2294 35.3466 18.1001 35.4223 17.9615C35.6379 18.1189 35.8827 18.2315 36.1424 18.2928C36.4021 18.3542 36.6715 18.3629 36.9346 18.3187C37.1978 18.2744 37.4495 18.178 37.6748 18.035C37.9002 17.8921 38.0946 17.7055 38.2468 17.4863C38.627 17.6655 39.054 17.7202 39.467 17.6426C39.88 17.5651 40.2581 17.3593 40.5473 17.0544C40.6502 17.3253 40.8105 17.5706 41.0174 17.7735C41.2243 17.9764 41.4727 18.132 41.7455 18.2295C42.0183 18.3271 42.3091 18.3642 42.5977 18.3385C42.8863 18.3128 43.1659 18.2247 43.4171 18.0804C43.4387 18.5048 43.5947 18.9113 43.8624 19.2413C44.1302 19.5713 44.4959 19.8077 44.9067 19.9163C45.3175 20.0249 45.7522 20.0002 46.1481 19.8456C46.5439 19.6911 46.8804 19.4148 47.109 19.0565C47.2529 19.4376 47.5095 19.7659 47.8446 19.9976C48.1797 20.2294 48.5774 20.3536 48.9848 20.3539C48.9849 20.7791 49.12 21.1933 49.3706 21.5368C49.6212 21.8803 49.9744 22.1354 50.3793 22.2652C50.253 22.6225 50.2309 23.0082 50.3155 23.3776C50.4001 23.7469 50.5879 24.0846 50.8571 24.3512C51.063 25.5503 51.2086 26.5072 51.2086 26.5072C51.2086 26.5072 51.6091 25.8532 52.0859 24.9259C52.1474 24.9316 52.2095 24.9354 52.2725 24.9354C52.6899 24.9357 53.097 24.8057 53.4371 24.5637C53.7772 24.3216 54.0333 23.9795 54.1698 23.585C54.3062 23.1905 54.3162 22.7632 54.1983 22.3628C54.0804 21.9624 53.8405 21.6087 53.5121 21.351C53.5371 21.244 53.559 21.1386 53.5779 21.0349C53.7981 20.8469 53.9749 20.6134 54.0961 20.3505C54.2173 20.0875 54.2801 19.8014 54.2799 19.5118Z" fill="#350313"/>
<path d="M38.5297 25.7796C39.3274 25.7796 39.3287 24.5398 38.5297 24.5398C37.732 24.5398 37.7307 25.7796 38.5297 25.7796Z" fill="#38101B"/>
<path d="M45.572 24.7049C45.7518 24.566 45.9541 24.459 46.1701 24.3884C46.3833 24.3149 46.6054 24.2701 46.8304 24.2554C47.0611 24.2362 47.2933 24.2587 47.516 24.3219C47.7471 24.3791 47.9514 24.5144 48.0942 24.7049C47.8878 24.6604 47.677 24.6396 47.4658 24.643C47.2648 24.6403 47.0623 24.6544 46.8573 24.6677C46.4301 24.7076 46.0008 24.72 45.572 24.7049Z" fill="#38101B"/>
<path d="M47.4904 25.7796C48.2881 25.7796 48.2894 24.5398 47.4904 24.5398C46.6927 24.5398 46.6913 25.7796 47.4904 25.7796Z" fill="#38101B"/>
<path d="M42.4754 35.4473L42.4422 35.4433C42.2757 35.4225 42.1073 35.4636 41.969 35.5588C36.3744 39.4633 33.5628 26.3095 33.5628 26.3095C33.3536 33.8155 36.7934 38.8919 40.1156 39.5084C41.0086 39.6742 41.802 39.1484 42.5124 39.1484C43.2154 39.1484 44.0402 39.6634 44.6535 39.5407C48.3596 38.7993 51.7551 32.1443 51.1258 25.2991C51.7813 32.4293 44.1366 37.0141 43.3114 35.7929C43.1668 35.5789 42.7319 35.478 42.4754 35.4473Z" fill="#38101B"/>
<path d="M41.5287 32.3681C41.5287 32.3681 41.0824 33.8648 41.5287 34.6785C41.975 35.4923 43.0854 35.3879 43.3263 34.6785C43.6053 33.857 43.2024 32.1821 43.2024 32.1821L41.5287 32.3681Z" fill="#38101B"/>
<path d="M46.2005 32.7281C46.2005 32.7281 44.2095 30.4157 42.0922 30.8865C39.9749 31.3572 39.0828 33.522 39.0828 33.522L46.2005 32.7281Z" fill="#D7645D"/>
<path d="M42.4211 29.6057C42.4469 29.7829 42.4368 29.9634 42.3912 30.1365C42.349 30.3112 42.2829 30.4793 42.1948 30.636C42.0108 30.956 41.7583 31.2313 41.4553 31.4421C41.152 31.6532 40.8118 31.8058 40.4524 31.8918C40.3646 31.9136 40.2756 31.9317 40.1865 31.95C40.1278 31.9663 40.0757 31.9767 40.0202 31.9896C39.9115 32.0069 39.7993 32.0466 39.6877 32.0681C39.2391 32.1891 38.7626 32.3279 38.2524 32.4824C37.9934 32.554 37.7315 32.6363 37.455 32.7162C37.3826 32.734 37.3162 32.7568 37.2455 32.7776C37.1714 32.7969 37.1052 32.821 37.0318 32.8425C36.9563 32.8653 36.8917 32.889 36.8137 32.9164C36.779 32.9289 36.7435 32.9437 36.7054 32.9613C36.6682 32.9801 36.6331 33.0029 36.6009 33.0294C36.5835 32.9862 36.5741 32.9401 36.5733 32.8935C36.573 32.8488 36.5742 32.8006 36.5781 32.7513C36.5907 32.6619 36.6107 32.5737 36.6378 32.4876C36.6897 32.321 36.759 32.1603 36.8446 32.0082C37.0099 31.7144 37.217 31.4463 37.4594 31.2121C37.9495 30.7366 38.5548 30.3967 39.2159 30.2258C39.3886 30.1832 39.564 30.1525 39.7409 30.1341C39.8299 30.1269 39.9222 30.1172 40.0079 30.1133C40.0632 30.1116 40.1187 30.1097 40.1752 30.1115C40.4 30.1128 40.6246 30.102 40.8481 30.0792C41.3984 30.026 41.9329 29.8652 42.4211 29.6057Z" fill="#350313"/>
<path d="M42.2358 29.6057C42.724 29.8652 43.2585 30.026 43.8089 30.0792C44.0324 30.102 44.257 30.1128 44.4818 30.1115C44.5383 30.1097 44.5938 30.1116 44.6491 30.1133C44.7348 30.1172 44.8271 30.1269 44.9161 30.1341C45.093 30.1525 45.2684 30.1832 45.441 30.2258C46.1022 30.3967 46.7075 30.7366 47.1976 31.2121C47.44 31.4463 47.6471 31.7144 47.8124 32.0082C47.898 32.1603 47.9673 32.321 48.0191 32.4876C48.0463 32.5737 48.0662 32.6619 48.0789 32.7513C48.0827 32.8006 48.084 32.8488 48.0837 32.8935C48.0829 32.9401 48.0735 32.9862 48.0561 33.0294C48.0238 33.0029 47.9888 32.9801 47.9515 32.9613C47.9135 32.9437 47.878 32.9289 47.8433 32.9164C47.7652 32.889 47.7007 32.8653 47.6252 32.8425C47.5517 32.8209 47.4856 32.7969 47.4114 32.7776C47.3408 32.7568 47.2744 32.734 47.202 32.7162C46.9255 32.6363 46.6636 32.554 46.4046 32.4824C45.8944 32.3279 45.4179 32.1891 44.9693 32.0681C44.8577 32.0466 44.7455 32.0069 44.6367 31.9896C44.5813 31.9767 44.5292 31.9663 44.4705 31.95C44.3813 31.9317 44.2924 31.9136 44.2046 31.8918C43.8451 31.8058 43.505 31.6532 43.2017 31.4421C42.8987 31.2313 42.6462 30.956 42.4622 30.636C42.3741 30.4793 42.308 30.3112 42.2658 30.1365C42.2202 29.9634 42.21 29.7829 42.2358 29.6057Z" fill="#350313"/>
<path d="M44.3922 29.3501C43.829 29.9209 43.0844 30.2774 42.2867 30.3584C42.3115 30.3626 42.3363 30.3646 42.3611 30.3667H42.2123C42.2371 30.3646 42.2619 30.3626 42.2867 30.3584C41.5019 30.2801 40.768 29.9343 40.208 29.379L44.3922 29.3501Z" fill="#B86A55"/>
</svg>
