<svg width="404" height="404" viewBox="0 0 404 404" fill="none" xmlns="http://www.w3.org/2000/svg">
<path d="M194.223 324.966C281.895 324.966 352.968 320.059 352.968 314.007C352.968 307.955 281.895 303.049 194.223 303.049C106.551 303.049 35.478 307.955 35.478 314.007C35.478 320.059 106.551 324.966 194.223 324.966Z" fill="#E5E5E5"/>
<path d="M201.32 366.83C307.577 366.83 393.715 355.597 393.715 341.741C393.715 327.884 307.577 316.651 201.32 316.651C95.0631 316.651 8.9248 327.884 8.9248 341.741C8.9248 355.597 95.0631 366.83 201.32 366.83Z" fill="#E5E5E5"/>
<path d="M341.986 243.612C341.986 243.612 357.54 242.473 357.338 261.162C357.156 277.822 344.939 278.727 342.289 278.727C341.966 278.727 341.784 278.715 341.784 278.715H223.21V272.833H341.582C341.582 272.833 349.957 271.128 350.268 261.828C350.672 249.684 340.774 249.684 340.774 249.684H223.21V243.612H341.986Z" fill="#3E89FC"/>
<path d="M356.684 311.755C356.906 311.755 357.088 311.936 357.088 312.159C357.088 312.381 356.906 312.563 356.684 312.563V311.755ZM356.684 315.928C356.906 315.928 357.088 316.11 357.088 316.332C357.088 316.554 356.906 316.736 356.684 316.736V315.928ZM356.684 320.643C356.906 320.643 357.088 320.824 357.088 321.047C357.088 321.269 356.906 321.451 356.684 321.451V320.643Z" fill="black"/>
<path d="M356.683 321.451V327.289H228.325C228.325 327.289 219 325.721 218.657 317.176C218.208 306.014 229.221 306.014 229.221 306.014H356.683V311.755H227.585C227.363 311.755 227.181 311.937 227.181 312.159C227.181 312.381 227.363 312.563 227.585 312.563H356.683V315.928H235.261C235.039 315.928 234.857 316.11 234.857 316.332C234.857 316.554 235.039 316.736 235.261 316.736H356.683V320.643H254.653C254.431 320.643 254.249 320.825 254.249 321.047C254.249 321.269 254.431 321.451 254.653 321.451H356.683Z" fill="#E5E5E5"/>
<path d="M356.684 321.047V321.451H254.653C254.431 321.451 254.249 321.269 254.249 321.047C254.249 320.824 254.431 320.643 254.653 320.643H356.684V321.047ZM356.684 316.332V316.736H235.261C235.039 316.736 234.857 316.554 234.857 316.332C234.857 316.11 235.039 315.928 235.261 315.928H356.684V316.332ZM356.684 312.563H227.585C227.363 312.563 227.181 312.381 227.181 312.159C227.181 311.936 227.363 311.755 227.585 311.755H356.684V312.563Z" fill="black"/>
<path d="M340.774 249.684C340.774 249.684 350.672 249.684 350.268 261.828C349.957 271.129 341.582 272.833 341.582 272.833H226.248V267.177H336.261C336.483 267.177 336.665 266.995 336.665 266.773C336.665 266.551 336.483 266.369 336.261 266.369H226.248V261.566H324.008C324.23 261.566 324.412 261.384 324.412 261.162C324.412 260.939 324.23 260.758 324.008 260.758H226.248V255.599H327.644C327.866 255.599 328.048 255.417 328.048 255.195C328.048 254.972 327.866 254.791 327.644 254.791H226.248V249.684H340.774Z" fill="#E5E5E5"/>
<path d="M343.602 278.728C343.602 278.728 347.238 289.72 343.602 299.966L307.444 300.176V278.728H343.602Z" fill="#A9D9FF"/>
<path d="M336.261 266.369C336.483 266.369 336.665 266.551 336.665 266.773C336.665 266.996 336.483 267.177 336.261 267.177H226.248V266.369H336.261ZM327.644 254.791C327.866 254.791 328.048 254.973 328.048 255.195C328.048 255.417 327.866 255.599 327.644 255.599H226.248V254.791H327.644ZM324.008 260.758C324.23 260.758 324.412 260.939 324.412 261.162C324.412 261.384 324.23 261.566 324.008 261.566H226.248V260.758H324.008Z" fill="black"/>
<path d="M307.444 278.728V300.176L262.463 300.434H248.731V278.728H307.444Z" fill="white"/>
<path d="M302.394 243.596V243.612H223.21V248.056H209.474V189.88H302.394V243.596ZM280.376 221.525V209.272H263.945V221.525H280.376ZM245.228 228.708V204.961H217.958V228.708H245.228Z" fill="#A9D9FF"/>
<path d="M263.945 209.272H280.376V221.525H263.945V209.272Z" fill="white"/>
<path d="M248.731 300.422V300.434H227.872C227.872 300.434 226.373 300.345 224.264 300.657L212.1 300.725C212.1 300.725 208.464 290.1 212.1 278.728H248.731V300.422Z" fill="#A9D9FF"/>
<path d="M217.958 204.961H245.228V228.709H217.958V204.961Z" fill="white"/>
<path d="M226.248 266.773V267.177C226.026 267.177 225.844 266.996 225.844 266.773C225.844 266.551 226.026 266.369 226.248 266.369V266.773ZM226.248 261.162V261.566C226.026 261.566 225.844 261.384 225.844 261.162C225.844 260.939 226.026 260.758 226.248 260.758V261.162ZM226.248 255.195V255.599C226.026 255.599 225.844 255.417 225.844 255.195C225.844 254.973 226.026 254.791 226.248 254.791V255.195Z" fill="black"/>
<path d="M218.657 317.176C219 325.721 228.325 327.288 228.325 327.288H360.065V332.694H228.098C228.098 332.694 211.013 333.74 210.787 316.566C210.629 304.442 219.206 301.396 224.264 300.657L262.463 300.435H360.065V306.014H229.222C229.222 306.014 218.209 306.014 218.657 317.176Z" fill="#295FC5"/>
<path d="M150.813 168.872V220.451H68.2759V168.872H150.813ZM135.324 193.516V182.362H115.677V193.516H135.324ZM102.212 198.901V188.131H93.8612V180.184H76.8932V189.88H85.3772V198.901H102.212Z" fill="#E5E5E5"/>
<path d="M115.677 182.362H135.324V193.516H115.677V182.362Z" fill="white"/>
<path d="M109.545 285.357L105.981 312.159H68.2761L64.7734 285.357H72.6838C72.7282 285.454 72.7524 285.511 72.7524 285.515C72.7882 285.601 72.853 285.673 72.9356 285.716C73.0182 285.76 73.1135 285.774 73.2052 285.756C73.2969 285.737 73.3792 285.687 73.4382 285.614C73.4971 285.542 73.5289 285.451 73.5281 285.357H84.9734V285.369C84.9775 285.588 85.1593 285.761 85.3774 285.761H85.3896C85.6077 285.757 85.7774 285.579 85.7814 285.357H95.0734V285.361C95.0745 285.468 95.1175 285.569 95.1932 285.644C95.2688 285.719 95.371 285.761 95.4774 285.761H95.4815C95.7037 285.757 95.8855 285.575 95.8814 285.357H109.545ZM102.212 188.131V198.901H85.3774V189.88H93.8614V188.131H102.212Z" fill="#A9D9FF"/>
<path d="M100.527 267.832C100.479 267.921 100.43 268.006 100.382 268.094C100.305 267.949 100.236 267.8 100.172 267.637C100.131 267.532 100.095 267.424 100.059 267.314L99.9294 267.306C99.9294 267.286 99.9335 267.265 99.9335 267.242C103.052 261.683 107.476 257.505 113.08 254.83C113.127 254.807 113.179 254.794 113.232 254.791C113.285 254.788 113.338 254.796 113.388 254.814C113.438 254.831 113.484 254.859 113.523 254.894C113.562 254.93 113.594 254.973 113.617 255.021C113.714 255.223 113.629 255.461 113.427 255.558C107.908 258.192 103.569 262.325 100.527 267.832Z" fill="black"/>
<path d="M99.9334 267.242C99.9981 265.617 98.9881 263.715 98.8426 262.066C98.6285 259.651 98.7093 256.399 99.6143 254.144C101.206 250.185 105.383 246.618 109.747 246.573C111.128 246.561 112.874 246.892 114.199 246.581C116.36 246.072 116.615 244.129 117.184 242.429C118.534 238.38 125.115 238.324 127.268 241.625C128.775 243.936 129.559 247.115 128.848 249.842C128.209 252.291 125.769 255.927 123.66 257.348C120.933 259.187 117.382 258.411 114.764 260.572C113.568 261.558 112.857 263.643 113.116 265.186C113.427 267.012 114.853 268.308 115.007 270.272C115.322 274.405 110.405 274.785 107.298 274.009C105.452 273.548 104.47 272.3 103.157 271.08C102.018 270.022 101.004 269.295 100.382 268.094C100.43 268.005 100.479 267.921 100.527 267.832C103.569 262.326 107.908 258.193 113.427 255.559C113.629 255.462 113.714 255.223 113.617 255.021C113.594 254.973 113.562 254.93 113.523 254.895C113.484 254.859 113.438 254.832 113.388 254.814C113.338 254.797 113.285 254.789 113.232 254.792C113.179 254.795 113.127 254.808 113.08 254.831C107.476 257.505 103.052 261.683 99.9334 267.242Z" fill="#A9D9FF"/>
<path d="M95.0733 285.357C95.0733 285.196 95.0329 276.102 99.8162 267.444C99.8526 267.375 99.893 267.307 99.9334 267.242C99.9334 267.266 99.9293 267.286 99.9293 267.307L100.059 267.315C100.095 267.424 100.131 267.533 100.172 267.638C100.236 267.799 100.305 267.949 100.382 268.094C95.8287 276.518 95.8813 285.264 95.8813 285.354V285.358L95.0733 285.357Z" fill="black"/>
<path d="M95.4772 285.357H95.8812C95.8853 285.576 95.7035 285.757 95.4813 285.761H95.4772C95.3708 285.761 95.2686 285.719 95.193 285.645C95.1173 285.57 95.0743 285.468 95.0732 285.361V285.357H95.4772Z" fill="black"/>
<path d="M93.3279 256.241C95.966 258.152 96.2812 261.99 94.5722 264.753C92.6856 267.804 87.983 271.565 84.1369 270.442C84.1329 270.401 84.1248 270.361 84.1167 270.32C82.1694 259.251 77.8749 244.662 68.5102 238.028C68.3284 237.903 68.0739 237.943 67.9446 238.125C67.8153 238.307 67.8598 238.562 68.0416 238.691C77.1558 245.143 81.3736 259.452 83.3087 270.36C78.4728 270.053 73.3097 268.785 68.8132 267.145C65.9448 266.098 62.3209 263.779 62.6158 260.281C62.7815 258.318 64.244 257.085 65.7186 256.002C66.8538 255.166 68.0618 254.225 67.6052 252.601C67.1406 250.948 65.1166 250.819 63.6905 250.213C61.6664 249.352 59.5818 248.274 58.2042 246.545C54.6692 242.097 55.1378 236.554 59.7919 233.209C63.9006 230.259 68.8819 229.868 73.5279 231.617C77.8022 233.233 83.236 237.007 83.2239 241.891C83.2158 245.6 81.6079 248.488 84.7348 251.421C87.2437 253.773 90.5969 254.261 93.3279 256.241Z" fill="#3E89FC"/>
<path d="M93.8613 188.131V189.88H76.8933V180.184H93.8613V188.131Z" fill="white"/>
<path d="M85.3773 285.357H85.7813C85.7772 285.58 85.6076 285.757 85.3894 285.761H85.3773C85.1591 285.761 84.9773 285.588 84.9733 285.369V285.357H85.3773ZM84.9733 285.357C84.9652 285.026 84.7511 278.554 83.325 270.458C83.3209 270.425 83.3128 270.393 83.3088 270.361C83.4462 270.373 83.5835 270.381 83.7209 270.389C83.8259 270.401 83.9269 270.405 84.032 270.409C84.0683 270.421 84.1006 270.43 84.137 270.442C85.5914 278.715 85.7813 285.28 85.7813 285.345V285.357H84.9733ZM73.124 285.357H73.528C73.5281 285.41 73.5177 285.463 73.4974 285.512C73.4772 285.561 73.4474 285.606 73.4099 285.643C73.3723 285.681 73.3277 285.711 73.2787 285.731C73.2296 285.751 73.177 285.761 73.124 285.761C72.9664 285.761 72.8169 285.668 72.7523 285.515C72.7523 285.511 72.728 285.455 72.6836 285.357H73.124Z" fill="black"/>
<path d="M68.0418 238.691C67.86 238.562 67.8155 238.307 67.9448 238.126C68.0741 237.944 68.3286 237.903 68.5104 238.029C77.8751 244.662 82.1697 259.251 84.1169 270.321C84.125 270.361 84.1331 270.401 84.1371 270.442C84.1008 270.43 84.0685 270.422 84.0321 270.41C83.9271 270.406 83.8261 270.401 83.721 270.389C83.5837 270.381 83.4463 270.373 83.3089 270.361C81.3738 259.453 77.156 245.143 68.0418 238.691ZM65.9895 276.744C66.0743 276.643 66.1511 276.53 66.2197 276.413C66.2238 276.417 66.2319 276.421 66.2359 276.425L66.3167 276.485C66.3854 276.542 66.4581 276.595 66.5268 276.655C71.5404 280.618 73.419 285.018 73.4958 285.2C73.52 285.252 73.5281 285.305 73.5281 285.357H72.6837C72.2999 284.549 70.3486 280.707 66.0137 277.277C65.9935 277.261 65.9773 277.245 65.9612 277.237C66.0137 277.205 66.0662 277.172 66.1228 277.144L66.2642 276.962C66.1753 276.885 66.0824 276.817 65.9895 276.744Z" fill="black"/>
<path d="M65.7389 277.063L65.8197 277.124C65.8642 277.16 65.9086 277.192 65.9611 277.237C64.4906 278.065 63.6098 278.724 61.812 279.128C59.5537 279.637 57.2549 279.677 54.94 279.701C51.1626 279.742 48.0276 278.627 44.844 276.768C41.915 275.059 38.978 272.276 38.4124 268.672C37.766 264.572 41.705 259.8 46.1692 260.838C47.4175 261.129 47.664 262.47 48.2457 263.408C48.9083 264.478 49.5264 264.761 50.803 264.89C54.132 265.222 57.0166 262.656 60.4667 263.941C63.5048 265.068 65.7914 268.077 66.4257 271.192C66.7166 272.618 67.0398 275.015 66.2197 276.412C62.5392 273.584 58.176 271.75 53.2594 270.954C53.0372 270.918 52.8311 271.071 52.7948 271.289C52.7584 271.511 52.9119 271.718 53.1301 271.754C57.9215 272.526 62.1676 274.312 65.7389 277.063Z" fill="#295FC5"/>
<path d="M65.8196 277.124L65.7388 277.063C62.1674 274.312 57.9214 272.527 53.13 271.755C52.9118 271.718 52.7583 271.512 52.7946 271.29C52.831 271.072 53.037 270.918 53.2592 270.955C58.1759 271.751 62.5391 273.585 66.2196 276.413C66.1509 276.53 66.0741 276.643 65.9893 276.744C66.0822 276.817 66.1751 276.886 66.264 276.962L66.1226 277.144C66.066 277.172 66.0135 277.205 65.961 277.237C65.9085 277.193 65.864 277.16 65.8196 277.124Z" fill="black"/>
<path d="M313.395 115.14L311.779 122.412L284.307 115.14H313.395ZM298.96 76.7599L284.214 84.4359L293.708 73.6208L298.96 76.7599ZM285.426 155.403L281.386 159.782L270.276 140.491L285.426 155.403ZM275.124 48.2779L259.166 67.4679L266.842 45.0459L275.124 48.2779Z" fill="#E22953"/>
<path d="M232.417 137.857V137.905C232.417 138.128 232.599 138.305 232.821 138.305C233.027 138.305 233.201 138.148 233.221 137.946C235.35 138.192 237.321 138.471 239.136 138.774C239.132 138.798 239.128 138.818 239.128 138.843C239.128 139.065 239.309 139.247 239.532 139.247C239.729 139.247 239.895 139.101 239.927 138.911V138.907C246.367 140.022 250.718 141.36 252.992 142.168C254.249 142.616 254.875 142.903 254.875 142.903L252.346 148.773C251.917 148.648 251.49 148.522 251.061 148.405C236.222 144.264 222.421 144.139 217.95 144.228C216.976 144.248 216.443 144.276 216.443 144.276L215.986 137.004C216.948 137.004 217.889 137.012 218.81 137.029C223.885 137.113 228.418 137.425 232.417 137.857Z" fill="#A9D9FF"/>
<path d="M244.998 110.91C245.628 109.197 246.222 107.937 246.772 107.161C247.612 105.969 249.143 105.258 250.872 105.258C252.379 105.258 253.627 105.812 253.837 106.583C254.044 107.331 253.236 108.312 251.62 109.27C249.842 110.324 247.616 110.878 244.998 110.91Z" fill="#FFC962"/>
<path d="M246.771 107.161C246.222 107.937 245.628 109.197 244.997 110.91C247.615 110.878 249.841 110.324 251.619 109.27C253.235 108.312 254.043 107.331 253.837 106.583C253.627 105.812 252.379 105.258 250.872 105.258C249.143 105.258 247.612 105.969 246.771 107.161ZM244.557 110.934C245.167 109.254 245.806 107.828 246.44 106.927C249.405 102.717 258.629 105.577 251.825 109.617C249.813 110.809 247.373 111.306 244.828 111.318C244.828 111.262 244.82 111.205 244.796 111.156C244.786 111.132 244.774 111.109 244.759 111.088C244.745 111.065 244.728 111.044 244.707 111.027C244.69 111.01 244.671 110.995 244.65 110.983C244.635 110.971 244.619 110.96 244.602 110.95C244.586 110.946 244.574 110.938 244.557 110.934ZM244.792 111.48C244.763 111.56 244.735 111.641 244.711 111.722C244.614 111.722 244.521 111.718 244.424 111.718C244.59 111.718 244.731 111.621 244.792 111.48Z" fill="black"/>
<path d="M244.759 111.088C244.775 111.112 244.788 111.136 244.796 111.157C244.788 111.132 244.775 111.108 244.759 111.088Z" fill="black"/>
<path d="M244.759 111.088C244.776 111.108 244.788 111.132 244.796 111.157C244.82 111.205 244.828 111.262 244.828 111.318C244.695 111.318 244.557 111.318 244.424 111.314C244.469 111.185 244.513 111.06 244.557 110.934C244.574 110.938 244.586 110.946 244.602 110.95C244.618 110.959 244.638 110.971 244.65 110.983C244.671 110.995 244.691 111.011 244.707 111.027C244.727 111.043 244.747 111.068 244.759 111.088Z" fill="black"/>
<path d="M244.145 110.902C244.84 108.959 245.483 107.581 246.108 106.692C247.098 105.286 248.88 104.45 250.871 104.45C252.799 104.45 254.301 105.218 254.617 106.369C254.839 107.177 254.568 108.458 252.031 109.965C250.068 111.128 247.612 111.722 244.735 111.722H244.71C244.735 111.641 244.763 111.561 244.791 111.48C244.816 111.431 244.828 111.375 244.828 111.318C247.373 111.306 249.813 110.809 251.825 109.617C258.628 105.577 249.405 102.717 246.44 106.927C245.805 107.828 245.167 109.254 244.557 110.934C244.526 110.921 244.493 110.914 244.46 110.914C244.456 110.91 244.452 110.91 244.448 110.91H244.42C244.327 110.91 244.238 110.906 244.145 110.902Z" fill="black"/>
<path d="M244.735 111.722C247.612 111.722 250.068 111.128 252.031 109.965C254.569 108.458 254.839 107.177 254.617 106.369C254.302 105.218 252.799 104.45 250.872 104.45C248.88 104.45 247.098 105.286 246.108 106.692C245.482 107.581 244.84 108.959 244.145 110.902C241.159 110.813 237.754 110.058 234.716 108.793C234.603 105.602 234.417 103.67 234.163 102.891C233.742 101.63 232.473 100.81 230.931 100.81C229.84 100.81 228.854 101.246 228.288 101.97C227.921 102.442 227.549 103.271 227.868 104.523C228.252 106.022 230.563 107.86 233.928 109.335C234.126 115.29 234.045 123.519 234.021 125.515L232.869 125.377C232.813 125.37 232.756 125.375 232.701 125.392C232.647 125.409 232.597 125.437 232.554 125.474C232.511 125.512 232.476 125.558 232.452 125.611C232.428 125.663 232.416 125.72 232.417 125.777V133.797C226.348 132.116 221 129.054 216.831 125.046C210.762 119.208 207.199 111.375 207.563 102.907C208.298 85.9147 224.591 72.821 243.96 73.6573C263.323 74.4936 278.428 88.9487 277.694 105.937C277.184 117.705 269.214 127.603 257.925 132.298C252.916 134.387 247.252 135.445 241.301 135.187C241.099 135.178 240.897 135.166 240.695 135.154L242.38 126.937C242.404 126.828 242.376 126.711 242.311 126.618C242.279 126.573 242.237 126.535 242.189 126.507C242.141 126.48 242.088 126.462 242.032 126.456L240.994 126.335C241.362 124.493 242.889 117.027 244.711 111.722H244.735Z" fill="#FFC962"/>
<path d="M244.65 110.983C244.636 110.97 244.619 110.959 244.602 110.951C244.618 110.959 244.634 110.971 244.65 110.983ZM244.424 111.314C244.557 111.318 244.695 111.318 244.828 111.318C244.828 111.375 244.816 111.431 244.792 111.48C244.731 111.621 244.59 111.718 244.424 111.718H244.42C244.375 111.718 244.335 111.71 244.295 111.694C244.335 111.565 244.38 111.439 244.424 111.314Z" fill="black"/>
<path d="M244.42 110.91H244.449C244.453 110.91 244.457 110.91 244.46 110.914C244.494 110.914 244.527 110.921 244.557 110.934C244.513 111.06 244.468 111.185 244.424 111.314C244.291 111.314 244.157 111.31 244.02 111.302C244.02 111.262 244.028 111.221 244.045 111.181L244.069 111.12C244.141 110.991 244.279 110.91 244.42 110.91Z" fill="black"/>
<path d="M244.42 110.91C244.279 110.91 244.141 110.991 244.068 111.12C244.093 111.048 244.117 110.971 244.145 110.902C244.238 110.906 244.327 110.91 244.42 110.91ZM244.42 111.718C244.376 111.718 244.331 111.718 244.287 111.714C244.291 111.706 244.291 111.698 244.295 111.694C244.335 111.71 244.376 111.718 244.42 111.718ZM244.424 111.314C244.38 111.439 244.335 111.565 244.295 111.694C244.212 111.669 244.141 111.616 244.093 111.544C244.042 111.474 244.016 111.389 244.02 111.302C244.157 111.31 244.291 111.314 244.424 111.314ZM244.044 111.181C244.028 111.221 244.02 111.262 244.02 111.302H244.003C244.016 111.262 244.032 111.221 244.044 111.181Z" fill="black"/>
<path d="M244.093 111.544C244.141 111.617 244.214 111.67 244.295 111.694C244.29 111.698 244.29 111.706 244.286 111.714C244.149 111.714 244.008 111.71 243.866 111.702C243.911 111.565 243.955 111.431 244.004 111.302H244.02C244.016 111.389 244.042 111.474 244.093 111.544Z" fill="black"/>
<path d="M243.866 111.702C242.04 117.095 240.529 124.521 240.19 126.238L234.829 125.608C234.849 123.802 234.934 115.706 234.748 109.682C237.734 110.878 240.925 111.585 243.866 111.702ZM240.695 135.154C240.897 135.166 241.099 135.178 241.301 135.186C247.252 135.445 252.916 134.386 257.925 132.298V132.302L252.992 142.168C250.718 141.36 246.367 140.022 239.927 138.907L240.695 135.154Z" fill="#FFC962"/>
<path d="M242.38 126.937L240.695 135.154L240.291 135.13L241.984 126.856L240.921 126.731C240.93 126.674 240.958 126.541 240.994 126.335L242.032 126.456C242.145 126.468 242.246 126.529 242.311 126.618C242.376 126.711 242.404 126.828 242.38 126.937Z" fill="black"/>
<path d="M241.499 127.208L239.883 135.098C237.637 134.928 235.409 134.563 233.226 134.007V126.234L234.337 126.363L240.518 127.09L241.499 127.208Z" fill="#FFC962"/>
<path d="M241.289 171.801C242.602 172.003 242.299 175.134 238.259 178.669C234.219 182.204 227.056 183.424 224.272 184.531C222.58 183.153 220.208 181.461 218.814 180.483C218.814 180.483 223.109 168.872 224.321 169.983C225.533 171.094 225.331 175.841 225.331 175.841C225.331 175.841 239.976 171.599 241.289 171.801Z" fill="#FDA181"/>
<path d="M244.711 111.722C242.889 117.027 241.362 124.493 240.994 126.335L240.595 126.286C240.946 124.509 242.457 117.091 244.287 111.714C244.332 111.718 244.376 111.718 244.42 111.718H244.424C244.521 111.718 244.614 111.722 244.711 111.722ZM239.883 135.098L241.499 127.208L240.517 127.09V127.086C240.707 127.086 240.877 126.953 240.913 126.759C240.913 126.755 240.917 126.747 240.921 126.731L241.984 126.856L240.292 135.13C240.154 135.122 240.016 135.11 239.883 135.098ZM240.695 135.154L239.928 138.907C239.798 138.883 239.665 138.863 239.532 138.839L240.292 135.13L240.695 135.154Z" fill="black"/>
<path d="M240.19 126.238C240.53 124.521 242.04 117.095 243.867 111.702C244.008 111.71 244.149 111.714 244.287 111.714C242.457 117.091 240.946 124.509 240.594 126.286L240.19 126.238ZM240.994 126.335C240.958 126.541 240.93 126.674 240.921 126.731L240.517 126.682C240.517 126.682 240.546 126.545 240.594 126.286L240.994 126.335Z" fill="black"/>
<path d="M240.121 126.605C240.121 126.593 240.146 126.468 240.19 126.238L240.594 126.286C240.546 126.545 240.517 126.682 240.517 126.682L240.117 126.634C240.117 126.626 240.121 126.614 240.121 126.605Z" fill="black"/>
<path d="M240.441 127.078C240.34 127.06 240.25 127.003 240.19 126.921C240.13 126.838 240.104 126.735 240.117 126.634L240.517 126.682L240.921 126.731C240.917 126.747 240.913 126.755 240.913 126.759C240.895 126.851 240.846 126.934 240.774 126.994C240.702 127.054 240.611 127.086 240.517 127.086C240.493 127.086 240.469 127.082 240.441 127.078ZM239.883 135.098C240.016 135.11 240.154 135.122 240.291 135.13L239.532 138.839C239.403 138.818 239.269 138.794 239.136 138.774V138.758L239.883 135.098ZM234.829 125.608L240.19 126.238C240.146 126.468 240.122 126.593 240.122 126.606C240.122 126.614 240.117 126.626 240.117 126.634L234.821 126.016C234.825 126.004 234.825 125.987 234.825 125.971C234.825 125.959 234.825 125.834 234.829 125.608Z" fill="black"/>
<path d="M233.225 134.007C235.366 134.552 237.592 134.924 239.883 135.098L239.135 138.758V138.774C237.321 138.471 235.35 138.192 233.221 137.946C233.225 137.934 233.225 137.918 233.225 137.901L233.225 134.007Z" fill="#FFC962"/>
<path d="M239.532 138.839C239.665 138.863 239.798 138.883 239.927 138.907V138.911C239.895 139.101 239.729 139.247 239.532 139.247C239.309 139.247 239.128 139.065 239.128 138.843C239.128 138.818 239.132 138.798 239.136 138.774C239.269 138.794 239.402 138.818 239.532 138.839ZM234.716 108.793C237.754 110.058 241.159 110.813 244.145 110.902C244.117 110.971 244.093 111.048 244.068 111.12L244.044 111.181C244.032 111.221 244.016 111.262 244.003 111.302C240.8 111.193 237.487 110.361 234.736 109.238C234.732 109.181 234.732 109.124 234.728 109.068V109.056L234.716 108.793Z" fill="black"/>
<path d="M234.736 109.238C237.487 110.361 240.8 111.193 244.003 111.302C243.955 111.431 243.911 111.565 243.866 111.702C240.925 111.585 237.733 110.878 234.748 109.682L234.736 109.238ZM234.825 125.971C234.825 125.987 234.825 126.004 234.821 126.016L234.421 125.967C234.421 125.967 234.425 125.822 234.425 125.559L234.829 125.608C234.825 125.834 234.825 125.959 234.825 125.971Z" fill="black"/>
<path d="M234.425 125.559C234.45 123.66 234.534 115.536 234.34 109.512C234.477 109.569 234.615 109.625 234.748 109.682C234.934 115.706 234.849 123.802 234.829 125.608L234.425 125.559Z" fill="black"/>
<path d="M234.748 109.682C234.615 109.625 234.478 109.569 234.34 109.512C234.34 109.496 234.336 109.484 234.336 109.472C234.413 109.468 234.49 109.444 234.554 109.399C234.619 109.355 234.667 109.294 234.696 109.221C234.708 109.23 234.72 109.234 234.737 109.238L234.748 109.682Z" fill="black"/>
<path d="M234.696 109.221C234.716 109.173 234.728 109.12 234.728 109.068C234.732 109.124 234.732 109.181 234.736 109.238C234.722 109.235 234.708 109.229 234.696 109.221ZM234.716 108.793L234.728 109.056C234.724 108.89 234.606 108.753 234.465 108.692C234.469 108.692 234.477 108.692 234.482 108.696C234.558 108.728 234.639 108.761 234.716 108.793ZM234.324 109.068C234.445 109.12 234.57 109.173 234.696 109.221C234.668 109.294 234.619 109.355 234.554 109.399C234.489 109.444 234.413 109.468 234.336 109.472L234.324 109.068ZM234.425 125.559C234.425 125.822 234.421 125.967 234.421 125.967L234.017 125.919C234.017 125.854 234.021 125.717 234.021 125.515L234.425 125.559ZM240.517 127.09L234.336 126.363C234.36 126.367 234.389 126.371 234.417 126.371H234.421C234.627 126.371 234.797 126.218 234.821 126.016L240.117 126.634C240.089 126.844 240.23 127.038 240.441 127.078C240.468 127.082 240.493 127.086 240.517 127.086V127.09H240.517ZM234.021 125.515C234.046 123.519 234.126 115.289 233.928 109.334C234.005 109.371 234.086 109.403 234.167 109.44C234.223 109.464 234.284 109.488 234.341 109.512C234.534 115.536 234.45 123.66 234.425 125.559L234.021 125.515Z" fill="black"/>
<path d="M234.308 108.664C234.36 108.66 234.417 108.672 234.466 108.692C234.607 108.753 234.724 108.89 234.728 109.056V109.068C234.728 109.12 234.716 109.173 234.696 109.221C234.571 109.173 234.445 109.12 234.324 109.068C234.32 108.93 234.316 108.797 234.308 108.664ZM234.34 109.512C234.284 109.488 234.223 109.464 234.167 109.44C234.215 109.46 234.272 109.472 234.324 109.472H234.336C234.336 109.484 234.34 109.496 234.34 109.512Z" fill="black"/>
<path d="M234.324 109.068C234.199 109.015 234.078 108.959 233.952 108.906C233.983 108.836 234.032 108.777 234.095 108.734C234.158 108.691 234.232 108.667 234.308 108.664C234.316 108.797 234.32 108.93 234.324 109.068Z" fill="black"/>
<path d="M234.227 108.676C234.202 108.68 234.177 108.689 234.154 108.7C234.178 108.692 234.203 108.68 234.227 108.676ZM234.166 109.44C234.095 109.41 234.034 109.361 233.991 109.298C233.947 109.235 233.922 109.161 233.92 109.084C233.92 109.052 233.92 109.019 233.928 108.987C233.932 108.959 233.94 108.935 233.953 108.91V108.906C234.078 108.959 234.199 109.015 234.324 109.068C234.328 109.201 234.333 109.335 234.336 109.472H234.324C234.271 109.472 234.215 109.46 234.166 109.44ZM234.017 125.919L234.421 125.967L234.821 126.016C234.796 126.218 234.627 126.371 234.421 126.371H234.417C234.364 126.371 234.311 126.36 234.262 126.339C234.214 126.318 234.169 126.288 234.132 126.25C234.095 126.212 234.066 126.167 234.046 126.118C234.026 126.069 234.016 126.016 234.017 125.963V125.919Z" fill="black"/>
<path d="M233.92 109.084C233.924 109.238 234.017 109.375 234.166 109.44C234.086 109.403 234.005 109.371 233.928 109.334C233.924 109.25 233.924 109.165 233.92 109.084Z" fill="black"/>
<path d="M233.896 108.438C231.027 107.121 228.951 105.505 228.652 104.321C228.462 103.569 228.555 102.947 228.927 102.467C229.339 101.937 230.09 101.618 230.931 101.618C231.831 101.618 233.019 102.018 233.395 103.145C233.548 103.61 233.754 104.911 233.896 108.438Z" fill="#FFC962"/>
<path d="M232.821 125.777L234.017 125.919V125.963C234.013 126.157 234.15 126.323 234.336 126.363L233.225 126.234V134.007C233.088 133.975 232.954 133.942 232.821 133.906V125.777Z" fill="black"/>
<path d="M232.821 137.901V133.906C232.955 133.942 233.088 133.975 233.225 134.007V137.901C233.225 137.918 233.225 137.934 233.221 137.946C233.088 137.93 232.955 137.918 232.821 137.901ZM232.87 125.377L234.021 125.515C234.021 125.717 234.017 125.854 234.017 125.919L232.821 125.777V133.906L232.417 133.797V125.777C232.417 125.66 232.466 125.551 232.555 125.474C232.639 125.398 232.753 125.365 232.87 125.377Z" fill="black"/>
<path d="M232.821 133.906V137.901C232.688 137.885 232.551 137.873 232.417 137.857V133.797L232.821 133.906Z" fill="black"/>
<path d="M232.821 137.901C232.955 137.918 233.088 137.93 233.221 137.946C233.201 138.148 233.027 138.305 232.821 138.305C232.599 138.305 232.417 138.128 232.417 137.905V137.857C232.551 137.873 232.688 137.885 232.821 137.901Z" fill="black"/>
<path d="M232.417 133.797V137.857C228.418 137.425 223.885 137.114 218.81 137.029L216.831 125.046C221 129.054 226.349 132.116 232.417 133.797Z" fill="#FFC962"/>
<path d="M231.29 43.0259L230.401 61.4079L226.248 43.0259H231.29Z" fill="#E22953"/>
<path d="M220.313 150.732C224.301 150.842 235.669 151.395 247.333 154.235L247.248 154.591L246.238 159.782C230.401 156.752 220.382 156.348 220.382 156.348L220.305 151.027L220.313 150.732Z" fill="#295FC5"/>
<path d="M233.395 103.145C233.019 102.018 231.831 101.618 230.93 101.618C230.09 101.618 229.339 101.937 228.927 102.466C228.555 102.947 228.462 103.569 228.651 104.321C228.95 105.505 231.027 107.121 233.895 108.438C233.754 104.911 233.548 103.61 233.395 103.145ZM228.26 104.422C227.319 100.709 232.837 100.192 233.779 103.02C234.041 103.812 234.207 105.969 234.308 108.664C234.28 108.664 234.255 108.668 234.227 108.676C234.203 108.68 234.179 108.692 234.154 108.7C234.064 108.742 233.992 108.815 233.952 108.906C230.858 107.525 228.611 105.803 228.26 104.422Z" fill="black"/>
<path d="M233.779 103.02C232.837 100.192 227.319 100.709 228.26 104.422C228.612 105.803 230.858 107.525 233.952 108.906V108.91C233.94 108.934 233.932 108.963 233.928 108.987C233.92 109.019 233.92 109.052 233.92 109.084C233.924 109.165 233.924 109.25 233.928 109.334C230.563 107.86 228.252 106.022 227.868 104.523C227.549 103.27 227.921 102.442 228.288 101.97C228.854 101.246 229.84 100.81 230.93 100.81C232.473 100.81 233.742 101.63 234.162 102.891C234.417 103.67 234.603 105.602 234.716 108.793C234.639 108.761 234.558 108.728 234.482 108.696C234.477 108.692 234.47 108.692 234.465 108.692C234.416 108.671 234.362 108.661 234.308 108.664C234.207 105.969 234.041 103.812 233.779 103.02Z" fill="black"/>
<path d="M218.815 180.483C220.208 181.461 222.58 183.153 224.273 184.531C225.291 185.359 226.066 186.07 226.24 186.446C226.373 186.737 225.133 187.892 223.081 189.524C220.039 186.406 213.377 182.362 213.377 182.362C215.898 180.79 217.655 179.679 217.655 179.679C217.655 179.679 218.112 179.99 218.815 180.483Z" fill="#A9D9FF"/>
<path d="M250.884 149.076L248.763 154.591C248.286 154.465 247.81 154.348 247.333 154.235C235.669 151.395 224.301 150.841 220.313 150.732C219.348 150.708 218.815 150.708 218.815 150.708L217.958 144.733L217.95 144.228C222.422 144.139 236.222 144.264 251.062 148.405L250.884 149.076Z" fill="#3E89FC"/>
<path d="M205.074 60.2524L208.666 76.7599L198.324 62.0704L205.074 60.2524ZM203.01 129.078L188.264 140.491L185.436 135.227L203.01 129.078ZM195.536 104.422L172.431 101.214L174.124 93.9299L195.536 104.422Z" fill="#E22953"/>
<path d="M195.94 207.454C192.506 208.161 181.901 200.99 181.901 200.99L181.59 200.893C181.865 199.98 182.058 199.188 182.103 198.667C182.204 197.483 180.968 194.065 179.731 190.999C183.679 196.893 190.114 205.006 196.788 207.147C196.429 207.309 196.142 207.414 195.94 207.454Z" fill="#295FC5"/>
<path d="M173.441 349.173C178.625 350.632 183.283 349.654 185.02 349.177L185.234 351.177C185.234 351.177 197.051 353.601 199.374 354.417C201.697 355.234 201.293 359.661 201.293 359.661L172.71 357.944L173.441 349.173Z" fill="#1E1950"/>
<path d="M170.302 244.432V244.428C172.068 244.165 173.825 243.83 175.538 243.41C190.385 239.774 190.991 238.36 190.991 238.36C190.991 238.36 191.363 281.115 187.727 303.941C187.727 303.941 187.153 345.117 185.739 348.955C185.739 348.955 185.485 349.048 185.02 349.177C183.283 349.654 178.625 350.632 173.441 349.173C173.199 349.108 172.956 349.035 172.71 348.955C172.71 348.955 172.843 310.676 173.449 305.424C174.055 300.172 166.816 259.065 166.816 259.065L166.565 259C168.739 250.545 170.302 244.432 170.302 244.432Z" fill="#403882"/>
<path d="M169.074 163.317C169.074 163.317 180.16 165.333 173.841 174.399C171.692 174.512 168.537 174.786 166.149 175.009C164.23 175.19 162.812 175.336 162.812 175.336L161.709 170.993L161.095 168.569C161.095 168.569 168.771 165.135 169.074 163.317Z" fill="#1E1950"/>
<path d="M168.436 182.879V185.032L161.58 180.693L168.436 182.879Z" fill="#295FC5"/>
<path d="M166.149 175.009L168.436 182.879L161.58 180.693L159.984 180.184L162.812 175.336C162.812 175.336 164.23 175.191 166.149 175.009Z" fill="#A9D9FF"/>
<path d="M158.764 154.582C159.136 154.502 159.313 153.859 159.156 153.152C159.002 152.441 158.574 151.932 158.202 152.013C157.831 152.094 157.653 152.736 157.806 153.443C157.964 154.154 158.392 154.663 158.764 154.582ZM162.893 152.15C163.05 152.861 163.479 153.37 163.85 153.29C164.222 153.209 164.4 152.567 164.242 151.855C164.089 151.148 163.66 150.635 163.289 150.72C162.917 150.801 162.739 151.439 162.893 152.15ZM162.077 154.599C162.125 154.801 163.034 158.505 163.822 159.782L165.571 157.56C164.072 156.905 162.194 154.732 162.077 154.599ZM146.45 159.479C146.652 156.045 149.884 156.449 149.884 156.449L150.025 153.823C150.025 153.823 153.12 151.827 155.257 148.72C155.403 148.68 155.536 148.644 155.661 148.615C156.098 148.555 157.071 148.478 157.685 148.611C157.903 148.656 158.118 148.518 158.166 148.3C158.188 148.195 158.167 148.086 158.109 147.996C158.051 147.906 157.96 147.843 157.855 147.82C157.192 147.678 156.324 147.731 155.859 147.779C157.067 145.686 157.738 143.182 156.853 140.491C156.853 140.491 162.347 140.588 164.343 146.204C163.151 146.426 162.263 146.878 162.222 146.898C162.024 147.003 161.947 147.246 162.048 147.444C162.121 147.581 162.263 147.662 162.408 147.662C162.473 147.662 162.533 147.646 162.594 147.618C162.602 147.613 163.442 147.181 164.541 146.983C164.561 146.979 164.577 146.975 164.598 146.975C165.026 148.276 165.499 149.718 165.971 151.189C167.628 156.364 169.304 161.943 169.074 163.317C168.771 165.135 161.095 168.569 161.095 168.569C161.095 168.569 158.873 169.316 155.944 168.112C155.944 168.112 157.738 170.565 161.709 170.993L162.812 175.336L159.984 180.184L152.409 177.861C155.641 170.084 151.298 162.206 151.298 162.206C151.298 162.206 146.248 162.913 146.45 159.479ZM163.567 164.763C164.965 163.822 165.103 161.6 165.103 161.6C165.103 161.6 161.802 162.679 158.841 162.408C158.841 162.408 162.17 165.709 163.567 164.763Z" fill="#FDA181"/>
<path d="M165.571 157.56L163.822 159.782C163.034 158.505 162.125 154.801 162.077 154.599C162.194 154.732 164.072 156.905 165.571 157.56Z" fill="#F77556"/>
<path d="M165.103 161.6C165.103 161.6 164.965 163.822 163.567 164.763C162.17 165.709 158.841 162.408 158.841 162.408C161.802 162.679 165.103 161.6 165.103 161.6Z" fill="white"/>
<path d="M166.129 146.919C165.66 146.862 165.147 146.886 164.598 146.975C164.557 146.846 164.513 146.717 164.473 146.587C164.456 146.543 164.444 146.494 164.428 146.45C164.4 146.365 164.372 146.284 164.343 146.203L164.4 146.191C165.05 146.074 165.66 146.05 166.226 146.119C166.444 146.143 166.606 146.345 166.577 146.567C166.553 146.785 166.351 146.947 166.129 146.919Z" fill="black"/>
<path d="M163.85 153.29C163.479 153.371 163.05 152.862 162.893 152.151C162.739 151.439 162.917 150.801 163.289 150.72C163.66 150.636 164.089 151.149 164.242 151.856C164.4 152.567 164.222 153.209 163.85 153.29Z" fill="#231F20"/>
<path d="M164.541 146.983C163.442 147.181 162.602 147.614 162.594 147.618C162.533 147.646 162.473 147.662 162.408 147.662C162.262 147.662 162.121 147.581 162.048 147.444C161.947 147.246 162.024 147.004 162.222 146.898C162.262 146.878 163.151 146.426 164.343 146.204C164.371 146.284 164.4 146.365 164.428 146.45C164.444 146.494 164.456 146.543 164.472 146.587C164.513 146.717 164.557 146.846 164.598 146.975C164.577 146.975 164.561 146.979 164.541 146.983Z" fill="black"/>
<path d="M161.095 168.569L161.709 170.993C157.738 170.565 155.944 168.113 155.944 168.113C158.873 169.316 161.095 168.569 161.095 168.569Z" fill="#F77556"/>
<path d="M159.984 180.184L156.077 186.377L152.134 180.188L152.13 180.184L150.813 178.12V178.116L152.409 177.861L159.984 180.184Z" fill="#A9D9FF"/>
<path d="M158.202 152.013C158.574 151.932 159.002 152.441 159.156 153.152C159.313 153.859 159.136 154.502 158.764 154.583C158.392 154.663 157.964 154.154 157.806 153.443C157.653 152.736 157.831 152.094 158.202 152.013Z" fill="#231F20"/>
<path d="M156.348 189.88L152.134 180.188L156.077 186.377L159.984 180.184L161.58 180.693L156.348 189.88Z" fill="#295FC5"/>
<path d="M157.685 148.611C157.071 148.478 156.098 148.555 155.661 148.615C155.536 148.644 155.403 148.68 155.257 148.72C155.374 148.555 155.484 148.385 155.593 148.215H155.597C155.686 148.074 155.774 147.929 155.859 147.779C156.324 147.731 157.192 147.678 157.855 147.82C158.073 147.868 158.211 148.082 158.166 148.3C158.118 148.518 157.904 148.656 157.685 148.611Z" fill="black"/>
<path d="M155.257 148.72C154.336 148.975 153.092 149.419 152.7 149.827C152.663 149.867 152.618 149.899 152.568 149.921C152.518 149.942 152.463 149.953 152.409 149.953C152.308 149.953 152.207 149.916 152.13 149.839C152.092 149.803 152.061 149.759 152.04 149.711C152.019 149.662 152.007 149.61 152.006 149.557C152.005 149.504 152.014 149.452 152.033 149.402C152.053 149.353 152.081 149.308 152.118 149.27C152.882 148.462 155.233 147.884 155.5 147.823L155.56 147.811C155.609 147.807 155.714 147.791 155.859 147.779C155.774 147.929 155.685 148.074 155.597 148.215H155.592C155.483 148.385 155.374 148.555 155.257 148.72Z" fill="black"/>
<path d="M143.141 237.754C143.161 236.946 141.634 233.27 141.634 233.27L142.568 232.829C142.568 232.829 148.167 220.887 147.561 217.655C147.286 216.18 142.652 204.852 140.188 198.885C139.283 196.699 138.673 195.233 138.673 195.233L138.35 195.168L135.97 206.815L132.31 213.716L140.354 228.709C135.696 229.864 132.653 231.993 131.227 233.185C127.462 227.088 120.566 215.837 120.493 215.029C120.392 213.918 134.229 181.8 134.734 181.194C134.851 181.053 135.877 180.794 137.38 180.487C141.109 179.715 147.771 178.613 150.813 178.116V178.12L152.13 180.184L152.134 180.188L156.348 189.88L161.58 180.693L168.436 185.032V182.879L166.149 175.009C168.537 174.787 171.692 174.512 173.841 174.399C175.138 174.334 176.067 174.326 176.245 174.427C176.952 174.831 194.425 193.011 195.637 192.91C196.497 192.837 207.22 186.208 213.377 182.362C213.377 182.362 220.039 186.406 223.081 189.525C216.411 194.833 201.168 205.176 196.788 207.147C190.114 205.006 183.679 196.894 179.731 190.999C180.968 194.066 182.204 197.483 182.103 198.667C182.059 199.188 181.865 199.98 181.59 200.893C180.649 204.024 178.77 208.565 178.77 208.565C178.77 208.565 188.466 226.24 190.991 238.36C190.991 238.36 190.385 239.774 175.538 243.41C173.825 243.83 172.068 244.166 170.302 244.428C156.764 246.476 142.64 244.433 142.64 244.433C142.931 241.386 143.129 238.166 143.141 237.754Z" fill="#3E89FC"/>
<path d="M146.45 159.479C146.248 162.913 151.298 162.206 151.298 162.206C151.298 162.206 155.641 170.084 152.409 177.861L150.813 178.116C147.771 178.612 141.109 179.715 137.38 180.487V180.483C137.368 180.483 133.724 180.479 133.219 174.73C132.714 168.973 139.986 166.044 140.693 162.509C141.4 158.974 136.754 156.045 137.562 150.389C138.37 144.733 142.915 137.562 155.944 135.441C168.973 133.32 170.843 144.818 165.971 151.189C165.499 149.718 165.026 148.276 164.598 146.975C165.147 146.886 165.66 146.862 166.129 146.919C166.181 146.925 166.235 146.921 166.286 146.907C166.337 146.893 166.384 146.869 166.426 146.836C166.468 146.804 166.503 146.763 166.529 146.717C166.554 146.671 166.571 146.62 166.577 146.567C166.584 146.515 166.58 146.461 166.566 146.41C166.552 146.359 166.527 146.311 166.495 146.27C166.462 146.228 166.422 146.193 166.375 146.167C166.329 146.141 166.278 146.125 166.226 146.119C165.66 146.05 165.05 146.074 164.4 146.191L164.343 146.204C162.347 140.588 156.853 140.491 156.853 140.491C157.738 143.182 157.067 145.686 155.859 147.779C155.714 147.791 155.609 147.807 155.56 147.811L155.5 147.824C155.233 147.884 152.882 148.462 152.118 149.27C151.965 149.432 151.969 149.686 152.13 149.84C152.207 149.916 152.308 149.953 152.409 149.953C152.514 149.953 152.623 149.912 152.7 149.827C153.092 149.419 154.336 148.975 155.257 148.72C153.12 151.827 150.025 153.823 150.025 153.823L149.884 156.449C149.884 156.449 146.652 156.045 146.45 159.479Z" fill="#1E1950"/>
<path d="M140.354 228.708L142.568 232.829L141.634 233.27L134.811 236.49L133.623 237.047C133.623 237.047 132.649 235.484 131.227 233.185C132.653 231.993 135.696 229.864 140.354 228.708Z" fill="#A9D9FF"/>
<path d="M141.634 233.27C141.634 233.27 143.161 236.946 143.141 237.754C143.129 238.166 142.931 241.386 142.64 244.432C142.362 247.361 141.998 250.124 141.634 250.076C141.356 250.04 140.657 249.615 139.824 248.916C138.443 247.749 136.702 245.818 135.946 243.612C134.734 240.077 134.811 236.489 134.811 236.489L141.634 233.27Z" fill="#FDA181"/>
<path d="M138.168 309.666C138.471 303.909 139.667 249.676 139.824 248.917C140.657 249.616 141.356 250.04 141.634 250.076C141.998 250.125 142.362 247.361 142.64 244.432C142.64 244.432 156.764 246.476 170.302 244.428V244.432C170.302 244.432 168.739 250.545 166.565 259C161.895 277.136 154.417 306.042 153.52 308.454C153.52 308.454 152.813 324.889 144.026 345.998C144.026 345.998 143.703 346.103 143.117 346.228C141.323 346.616 137.061 347.214 132.019 345.691C131.454 345.517 130.876 345.319 130.29 345.089C130.29 345.089 137.865 315.423 138.168 309.666Z" fill="#295FC5"/>
<path d="M132.019 345.691C137.061 347.214 141.323 346.616 143.117 346.228L142.006 357.439L114.635 357.944C114.635 357.944 114.635 354.611 115.443 352.995C116.251 351.379 130.29 348.854 130.29 348.854L132.019 345.691Z" fill="#1E1950"/>
<path d="M138.673 195.233C138.673 195.233 139.283 196.7 140.188 198.885L140.18 198.889L135.97 206.816L138.35 195.168L138.673 195.233Z" fill="#295FC5"/>
<path d="M267.852 98.7105C267.455 94.9343 264.142 88.9596 261.12 86.8588C260.263 86.2633 257.406 84.88 256.325 85.837C254.556 87.405 257.177 90.1106 258.156 91.169C259.789 92.9357 261.589 94.7368 262.675 96.8113C263.482 98.3526 263.774 100.393 264.822 101.74C267.764 105.518 269.27 100.74 267.583 97.9025M266.775 109.215C266.399 110.142 265.281 113.755 265.692 114.871C266.322 116.574 268.248 117.029 269.427 115.409C271.29 112.848 267.328 107.253 266.236 110.561" fill="white"/>
</svg>
